<?xml version="1.0" encoding="UTF-8" standalone="no"?>
<!-- Created with Inkscape (http://www.inkscape.org/) -->

<svg
   version="1.1"
   id="svg824"
   xml:space="preserve"
   width="750.66669"
   height="597.33331"
   viewBox="0 0 750.66669 597.33331"
   sodipodi:docname="Plot_SED_Templates_v20230706a_no_ticks.svg"
   inkscape:version="1.1.2 (b8e25be8, 2022-02-05)"
   xmlns:inkscape="http://www.inkscape.org/namespaces/inkscape"
   xmlns:sodipodi="http://sodipodi.sourceforge.net/DTD/sodipodi-0.dtd"
   xmlns="http://www.w3.org/2000/svg"
   xmlns:svg="http://www.w3.org/2000/svg"><defs
     id="defs828"><clipPath
       clipPathUnits="userSpaceOnUse"
       id="clipPath840"><path
         d="M 0,0 H 612 V 792 H 0 Z"
         id="path838" /></clipPath></defs><sodipodi:namedview
     id="namedview826"
     pagecolor="#ffffff"
     bordercolor="#666666"
     borderopacity="1.0"
     inkscape:pageshadow="2"
     inkscape:pageopacity="0.0"
     inkscape:pagecheckerboard="0"
     showgrid="false"
     inkscape:zoom="0.83392538"
     inkscape:cx="494.049"
     inkscape:cy="366.33973"
     inkscape:window-width="1312"
     inkscape:window-height="969"
     inkscape:window-x="57"
     inkscape:window-y="25"
     inkscape:window-maximized="0"
     inkscape:current-layer="g830" /><g
     id="g830"
     inkscape:groupmode="layer"
     inkscape:label="Plot_SED_Templates_v20230706a"
     transform="matrix(1.3333333,0,0,-1.3333333,0,597.33333)"><path
       d="M 100.16,63.6 H 551.84 V 431.04 H 100.16 V 63.6 h 451.68 m -451.68,0 h 451.68 m -451.68,0 v 12.24"
       style="fill:none;stroke:#000000;stroke-width:1;stroke-linecap:butt;stroke-linejoin:round;stroke-miterlimit:10;stroke-dasharray:none;stroke-opacity:1"
       id="path844" /><path
       d="m 100.16,129.84 h 0.24 l 0.72,1.2 0.72,0.96 0.96,0.96 0.72,0.96 0.72,0.96 0.96,0.96 0.72,0.96 0.72,0.96 0.96,0.96 0.72,0.96 0.96,0.96 0.72,0.72 0.72,0.96 0.96,0.96 0.72,0.72 0.72,0.96 0.96,0.72 0.72,0.72 0.72,0.96 0.96,0.96 0.72,0.72 0.72,0.72 0.96,0.96 0.72,0.72 0.96,0.96 0.72,1.2 0.72,0.96 0.96,0.72 0.72,0.96 0.72,0.72 0.96,0.72 0.72,0.72 0.72,0.72 0.96,0.72 0.72,0.72 0.72,0.72 0.96,0.72 0.72,0.48 0.96,0.24 0.72,0.48 0.72,0.48 0.96,0.48 0.72,0.48 0.72,0.48 0.96,0.48 0.72,0.24 0.72,0.48 0.96,0.48 0.72,0.48 0.96,0.24 0.72,0.24 0.72,0.48 0.96,0.24 0.72,0.24 0.72,0.24 0.96,0.24 h 0.72 l 0.72,0.24 h 0.96 l 0.72,-0.24 h 0.96 0.72 l 0.72,-0.24 0.96,-0.24 0.72,-0.24 h 0.72 l 0.96,-0.24 h 0.72 0.72 0.96 0.72 0.72 l 0.96,0.24 0.72,0.48 0.72,1.44 0.96,4.56 0.72,1.44 0.96,0.72 0.72,0.24 0.72,0.48 h 0.96 0.72 l 0.72,0.24 0.96,0.24 0.72,0.24 h 0.72 0.96 l 0.72,-1.44 0.96,-3.6 0.72,-0.96 h 0.72 l 0.96,0.24 0.72,0.48 0.72,0.72 0.96,1.2 0.72,1.68 0.72,1.44 0.96,1.68 0.72,1.92 0.96,2.4 0.72,2.4 0.72,2.88 0.96,4.56 0.72,4.32 0.72,3.12 0.96,2.88 0.72,2.88 0.72,2.64 0.96,2.16 0.72,2.88 0.72,3.6 0.96,3.6 0.72,3.12 0.72,3.12 0.96,1.68 0.72,-0.24 0.96,0.24 0.72,1.2 0.72,0.48 h 0.96 l 0.72,-0.24 0.72,-0.48 0.96,-0.96 0.72,-1.44 0.72,-2.16 0.96,-2.16 0.72,-1.44 0.96,-0.48 0.72,1.68 0.72,0.72 0.96,0.24 0.72,1.2 0.72,1.44 0.96,1.92 0.72,1.68 0.72,1.44 0.96,1.2 0.72,1.2 0.96,0.96 0.72,0.48 0.72,0.24 0.96,-1.68 0.72,-0.72 h 0.72 l 0.96,-0.24 0.72,0.24 0.72,-0.24 0.96,0.24 0.72,0.48 0.72,0.48 0.96,0.48 0.72,0.72 0.96,0.72 0.72,0.72 0.72,0.72 0.96,0.72 0.72,0.72 0.72,0.48 0.96,0.24 0.72,0.24 0.72,0.24 0.96,0.48 0.72,0.72 0.72,0.48 0.96,0.72 0.72,0.96 0.96,0.72 0.72,0.96 0.72,0.96 0.96,0.96 0.72,1.2 0.72,1.2 0.96,1.2 0.72,1.2 0.72,1.2 0.96,1.44 0.72,1.2 0.96,1.44 0.72,1.2 0.72,1.2 0.96,1.44 0.72,1.2 0.72,1.2 0.96,1.2 0.72,1.2 0.72,1.2 0.96,1.2 0.72,0.96 0.72,1.2 0.96,0.96 0.72,0.96 0.96,0.96 0.72,1.2 0.72,0.96 0.96,0.96 0.72,0.96 0.72,0.96 0.96,0.96 0.72,0.96 0.72,0.96 0.96,0.96 0.72,0.96 0.72,0.72 0.96,0.96"
       style="fill:none;stroke:#4444dd;stroke-width:0.5;stroke-linecap:butt;stroke-linejoin:round;stroke-miterlimit:10;stroke-dasharray:none;stroke-opacity:1"
       id="path924" /><path
       d="m 264.8,286.08 0.72,0.96 0.96,0.72 0.72,0.96 0.72,0.72 0.96,0.72 0.72,0.72 0.72,0.72 0.96,0.72 0.72,0.72 0.72,0.48 0.96,0.72 0.72,0.48 0.72,0.48 0.96,0.48 0.72,0.48 0.96,0.48 0.72,0.24 0.72,0.24 0.96,0.48 0.72,0.24 0.72,0.24 h 0.96 l 0.72,0.24 H 284 l 0.96,0.24 h 0.72 0.96 0.72 0.72 0.96 0.72 l 0.72,-0.24 h 0.96 l 0.72,-0.24 h 0.72 l 0.96,-0.24 0.72,-0.24 0.72,-0.24 0.96,-0.48 0.72,-0.24 0.96,-0.48 0.72,-0.48 0.72,-0.48 0.96,-0.48 0.72,-0.72 0.72,-0.72 0.96,-0.48 0.72,-0.72 0.72,-0.96 0.96,-0.72 0.72,-0.72 0.72,-0.72 0.96,-0.72 0.72,-0.96 0.96,-0.72 0.72,-0.96 0.72,-0.72 0.96,-0.96 0.72,-0.96 0.72,-0.96 0.96,-0.72 0.72,-1.2 0.72,-0.96 0.96,-0.96 0.72,-0.96 0.96,-1.2 0.72,-0.96 0.72,-1.2 0.96,-0.96 0.72,-1.2 0.72,-1.2 0.96,-1.2 0.72,-1.2 0.72,-1.2 0.96,-1.2 0.72,-1.2 0.96,-1.2 0.72,-1.2 0.72,-1.2 0.96,-1.44 0.72,-1.2 0.72,-1.2 0.96,-1.2 0.72,-1.44 0.72,-1.2 0.96,-1.2 0.72,-1.2 0.72,-1.44 0.96,-1.2 0.72,-1.44 0.72,-1.2 0.96,-1.2 0.72,-1.44 0.96,-1.2 0.72,-1.44 0.72,-1.2 0.96,-1.44 0.72,-1.2 0.72,-1.2 0.96,-1.44 0.72,-1.2 0.72,-1.44 0.96,-1.2 0.72,-1.44 0.96,-1.2 0.72,-1.44 0.72,-1.2 0.96,-1.44 0.72,-1.2 0.72,-1.44 0.96,-1.2 0.72,-1.44 0.72,-1.2 0.96,-1.44 0.72,-1.2 0.96,-1.44 0.72,-1.2 0.72,-1.44 0.96,-1.2 0.72,-1.44 0.72,-1.2 0.96,-1.44 0.72,-1.2 0.72,-1.44 0.96,-1.2 0.72,-1.44 0.72,-1.44 0.96,-1.2 0.72,-1.44 0.72,-1.2 0.96,-1.44 0.72,-1.2 0.96,-1.44 0.72,-1.2 0.72,-1.44 0.96,-1.2 0.72,-1.2 0.72,-1.44 0.96,-1.2 0.72,-1.2 0.72,-1.44 0.96,-1.2 0.72,-1.2 0.96,-1.2 0.72,-1.2 0.72,-1.2 0.96,-1.2 0.72,-1.2 0.72,-1.2 0.96,-0.96 0.72,-1.2 0.72,-0.96 0.96,-1.2 0.72,-0.96 0.96,-0.96 0.72,-1.2 0.72,-0.96 0.96,-0.72 0.72,-0.96 0.72,-0.96 0.96,-0.72 0.72,-0.96 0.72,-0.72 0.96,-0.72 0.72,-0.72 0.72,-0.48 0.96,-0.72 0.72,-0.48 0.96,-0.72 0.72,-0.48 0.72,-0.48 0.96,-0.48 0.72,-0.24 0.72,-0.48 0.96,-0.24 0.72,-0.24 0.72,-0.24 0.96,-0.24 0.72,-0.24 h 0.72 l 0.96,-0.24 h 0.72 0.96 l 0.72,-0.24 h 0.72 0.96 l 0.72,0.24 h 0.72 0.96 l 0.72,0.24 h 0.72 l 0.96,0.24 h 0.72 l 0.72,0.24 0.96,0.24 h 0.72 l 0.96,0.24 0.72,0.24 0.72,0.24 0.96,0.24 0.72,0.24 0.72,0.24 0.96,0.24 0.72,0.24 0.72,0.24 0.96,0.24 0.72,0.24 0.96,0.24 0.72,0.48 0.72,0.24 0.96,0.24 0.72,0.24 0.72,0.24 0.96,0.48 0.72,0.24 0.72,0.24 0.96,0.24 0.72,0.48 0.72,0.24 0.96,0.24 0.72,0.48 0.96,0.24 0.72,0.24 0.72,0.48 0.96,0.24 0.72,0.24 0.72,0.24 0.96,0.48 0.72,0.24 0.72,0.24 0.96,0.48 0.72,0.24 0.72,0.48 0.96,0.24 0.72,0.24 0.96,0.48 0.72,0.24 0.72,0.24 0.96,0.48 0.72,0.24 0.72,0.24 0.96,0.48 0.72,0.24 0.72,0.48 0.96,0.24 0.72,0.24 0.96,0.48 0.72,0.24 0.72,0.24 0.96,0.48 0.72,0.24 0.72,0.24 0.96,0.48 0.72,0.24 0.72,0.48 0.96,0.24 0.72,0.24 0.72,0.48 0.96,0.24 0.72,0.24 0.96,0.48 0.72,0.24 0.72,0.48 0.96,0.24 0.72,0.24 0.72,0.48 0.96,0.24 0.72,0.24 0.72,0.48 0.96,0.24 0.72,0.48 0.72,0.24 0.96,0.24 0.72,0.48 0.96,0.24 0.72,0.48 0.72,0.24 0.96,0.24 0.72,0.48 0.72,0.24 0.96,0.24 0.72,0.48 0.72,0.24 0.96,0.48 0.72,0.24 0.96,0.24 0.72,0.48 0.72,0.24 0.96,0.24 0.72,0.48 0.72,0.24 0.96,0.48 0.72,0.24 0.72,0.24 0.96,0.48 0.72,0.24 0.96,0.24 0.72,0.48 0.72,0.24 0.96,0.48"
       style="fill:none;stroke:#4444dd;stroke-width:0.5;stroke-linecap:butt;stroke-linejoin:round;stroke-miterlimit:10;stroke-dasharray:none;stroke-opacity:1"
       id="path926" /><path
       d="m 506.72,183.12 0.72,0.24 0.72,0.24 0.96,0.48 0.72,0.24 0.72,0.24 0.96,0.48 0.72,0.24 0.72,0.48 0.96,0.24 0.72,0.24 0.72,0.48 0.96,0.24 0.72,0.24 0.96,0.48 0.72,0.24 0.72,0.48 0.96,0.24 0.72,0.24 0.72,0.48 0.96,0.24 0.72,0.24 0.72,0.48 0.96,0.24 0.72,0.48 0.96,0.24 0.72,0.24 0.72,0.48 0.96,0.24 0.72,0.24 0.72,0.48 0.96,0.24 0.72,0.48 0.72,0.24 0.96,0.24 0.72,0.48 0.96,0.24 0.72,0.24 0.72,0.48 0.96,0.24 0.72,0.48 0.72,0.24 0.96,0.24 0.72,0.48 0.72,0.24 0.96,0.24 0.72,0.48 0.72,0.24 0.96,0.48 0.72,0.24 0.72,0.24 0.96,0.48 0.72,0.24 0.96,0.24 0.72,0.48 0.72,0.24 0.96,0.48 v 0"
       style="fill:none;stroke:#4444dd;stroke-width:0.5;stroke-linecap:butt;stroke-linejoin:round;stroke-miterlimit:10;stroke-dasharray:none;stroke-opacity:1"
       id="path928" /><path
       d="m 100.16,110.16 0.72,1.68 0.72,2.16 0.96,2.16 0.72,1.92 0.72,1.44 0.96,1.68 0.72,1.44 0.72,1.2 0.96,0.96 0.72,1.2 0.96,1.2 0.72,0.96 0.72,0.96 0.96,0.96 0.72,0.96 0.72,0.96 0.96,0.96 0.72,0.96 0.72,0.96 0.96,0.72 0.72,0.96 0.72,0.96 0.96,0.96 0.72,0.72 0.72,0.96 0.96,0.72 0.72,0.72 0.96,0.96 0.72,0.96 0.72,0.72 0.96,0.96 0.72,0.72 0.72,0.72 0.96,0.96 0.72,0.96 0.72,0.96 0.96,0.96 0.72,0.96 0.96,0.72 0.72,0.72 0.72,0.72 0.96,0.72 0.72,0.72 0.72,0.72 0.96,0.96 0.72,0.48 0.72,0.72 0.96,0.48 0.72,0.24 0.96,0.48 0.72,0.48 0.72,0.48 0.96,0.48 0.72,0.48 0.72,0.48 0.96,0.24 0.72,0.48 0.72,0.48 0.96,0.48 0.72,0.24 0.72,0.24 0.96,0.48 0.72,0.24 0.96,0.24 0.72,0.24 0.72,0.24 h 0.96 l 0.72,0.24 h 0.72 l 0.96,-0.24 h 0.72 l 0.72,-0.24 0.96,-0.24 0.72,-0.24 0.72,-0.24 h 0.96 l 0.72,-0.24 h 0.96 0.72 0.72 0.96 0.72 0.72 l 0.96,0.48 0.72,1.68 0.72,4.32 0.96,1.44 0.72,0.72 0.96,0.24 0.72,0.24 0.72,0.24 h 0.96 l 0.72,0.24 h 0.72 l 0.96,0.24 0.72,0.24 0.72,-0.24 0.96,-0.96 0.72,-3.84 0.72,-0.96 h 0.96 l 0.72,0.48 0.96,0.48 0.72,0.72 0.72,1.2 0.96,1.68 0.72,1.44 0.72,1.68 0.96,2.16 0.72,2.16 0.72,2.4 0.96,2.88 0.72,4.56 0.72,4.32 0.96,3.12 0.72,2.88 0.96,2.88 0.72,2.64 0.72,2.16 0.96,2.88 0.72,3.36 0.72,3.6 0.96,3.36 0.72,3.12 0.72,1.44 0.96,-0.24 0.72,0.48 0.96,1.2 0.72,0.48 h 0.72 l 0.96,-0.24 0.72,-0.48 0.72,-0.96 0.96,-1.44 0.72,-1.92 0.72,-2.16 0.96,-1.44 0.72,-0.24 0.72,1.44 0.96,0.72 0.72,0.24 0.96,1.44 0.72,1.44 0.72,1.92 0.96,1.68 0.72,1.44 0.72,1.44 0.96,0.96 0.72,1.2 0.72,0.48 0.96,0.24 0.72,-1.44 0.72,-0.48 0.96,-0.24 h 0.72 l 0.96,0.24 h 0.72 l 0.72,0.48 0.96,0.72 0.72,0.24 0.72,0.72 0.96,0.72 0.72,0.96 0.72,0.72 0.96,0.96 0.72,0.72 0.96,0.72 0.72,0.72 0.72,0.24 0.96,0.48 0.72,0.48 0.72,0.48 0.96,0.72 0.72,0.72 0.72,0.96 0.96,0.96 0.72,0.96 0.72,0.96 0.96,1.2 0.72,1.2 0.96,1.2 0.72,1.2 0.72,1.44 0.96,1.44 0.72,1.44 0.72,1.44 0.96,1.68 0.72,1.44 0.72,1.68 0.96,1.44"
       style="fill:none;stroke:#11aabb;stroke-width:0.5;stroke-linecap:butt;stroke-linejoin:round;stroke-miterlimit:10;stroke-dasharray:none;stroke-opacity:1"
       id="path932" /><path
       d="m 253.28,262.8 0.72,1.44 0.72,1.44 0.96,1.44 0.72,1.44 0.96,1.44 0.72,1.2 0.72,1.2 0.96,1.2 0.72,1.2 0.72,0.96 0.96,1.2 0.72,0.96 0.72,0.96 0.96,1.2 0.72,0.96 0.72,0.96 0.96,0.72 0.72,0.96 0.96,0.96 0.72,0.72 0.72,0.96 0.96,0.72 0.72,0.96 0.72,0.72 0.96,0.72 0.72,0.72 0.72,0.72 0.96,0.72 0.72,0.72 0.96,0.48 0.72,0.72 0.72,0.48 0.96,0.48 0.72,0.48 0.72,0.48 0.96,0.24 0.72,0.48 0.72,0.24 0.96,0.48 0.72,0.24 0.96,0.24 0.72,0.24 h 0.72 l 0.96,0.24 h 0.72 0.72 l 0.96,0.24 h 0.72 l 0.72,-0.24 h 0.96 0.72 l 0.72,-0.24 H 296 l 0.72,-0.24 0.72,-0.24 0.96,-0.24 0.72,-0.24 0.96,-0.24 0.72,-0.24 0.72,-0.24 0.96,-0.24 0.72,-0.48 0.72,-0.48 0.96,-0.48 0.72,-0.48 0.72,-0.48 0.96,-0.72 0.72,-0.48 0.96,-0.72 0.72,-0.72 0.72,-0.72 0.96,-0.96 0.72,-0.72 0.72,-0.72 0.96,-0.96 0.72,-0.72 0.72,-0.96 0.96,-0.96 0.72,-0.72 0.96,-0.96 0.72,-0.96 0.72,-0.96 0.96,-0.96 0.72,-0.96 0.72,-0.96 0.96,-0.96 0.72,-1.2 0.72,-0.96 0.96,-1.2 0.72,-0.96 0.72,-1.2 0.96,-1.2 0.72,-1.2 0.72,-1.2 0.96,-1.2 0.72,-1.2 0.96,-1.2 0.72,-1.2 0.72,-1.2 0.96,-1.44 0.72,-1.2 0.72,-1.2 0.96,-1.2 0.72,-1.44 0.72,-1.2 0.96,-1.2 0.72,-1.44 0.96,-1.2 0.72,-1.44 0.72,-1.2 0.96,-1.2 0.72,-1.44 0.72,-1.2 0.96,-1.44 0.72,-1.2 0.72,-1.44 0.96,-1.2 0.72,-1.44 0.96,-1.2 0.72,-1.44 0.72,-1.2 0.96,-1.44 0.72,-1.2 0.72,-1.44 0.96,-1.44 0.72,-1.2 0.72,-1.44 0.96,-1.2 0.72,-1.44 0.72,-1.2 0.96,-1.44 0.72,-1.2 0.96,-1.44 0.72,-1.2 0.72,-1.44 0.96,-1.44 0.72,-1.2 0.72,-1.44 0.96,-1.2 0.72,-1.44 0.72,-1.2 0.96,-1.44 0.72,-1.2 0.72,-1.44 0.96,-1.2 0.72,-1.44 0.96,-1.44 0.72,-1.2 0.72,-1.44 0.96,-1.2 0.72,-1.44 0.72,-1.2 0.96,-1.44 0.72,-1.2 0.72,-1.2 0.96,-1.44 0.72,-1.2 0.96,-1.44 0.72,-1.2 0.72,-1.2 0.96,-1.2 0.72,-1.44 0.72,-1.2 0.96,-1.2 0.72,-1.2 0.72,-1.2 0.96,-1.2 0.72,-0.96 0.72,-1.2 0.96,-1.2 0.72,-0.96 0.96,-1.2 0.72,-0.96 0.72,-0.96 0.96,-0.96 0.72,-0.96 0.72,-0.96 0.96,-0.96 0.72,-0.96 0.72,-0.72 0.96,-0.72 0.72,-0.96 0.72,-0.72 0.96,-0.72 0.72,-0.48 0.96,-0.72 0.72,-0.48 0.72,-0.48 0.96,-0.48 0.72,-0.48 0.72,-0.48 0.96,-0.48 0.72,-0.24 0.72,-0.24 0.96,-0.24 0.72,-0.24 0.72,-0.24 0.96,-0.24 h 0.72 l 0.96,-0.24 h 0.72 0.72 0.96 0.72 0.72 0.96 0.72 0.72 l 0.96,0.24 h 0.72 l 0.96,0.24 0.72,0.24 h 0.72 l 0.96,0.24 0.72,0.24 0.72,0.24 0.96,0.24 0.72,0.24 0.72,0.24 0.96,0.24 0.72,0.24 0.72,0.24 0.96,0.24 0.72,0.24 0.96,0.24 0.72,0.24 0.72,0.24 0.96,0.24 0.72,0.48 0.72,0.24 0.96,0.24 0.72,0.24 0.72,0.48 0.96,0.24 0.72,0.24 0.72,0.24 0.96,0.48 0.72,0.24 0.96,0.24 0.72,0.48 0.72,0.24 0.96,0.24 0.72,0.48 0.72,0.24 0.96,0.24 0.72,0.24 0.72,0.48 0.96,0.24 0.72,0.48 0.96,0.24 0.72,0.24 0.72,0.48 0.96,0.24 0.72,0.24 0.72,0.48 0.96,0.24 0.72,0.24 0.72,0.48 0.96,0.24 0.72,0.24 0.96,0.48 0.72,0.24 0.72,0.48 0.96,0.24 0.72,0.24 0.72,0.48 0.96,0.24 0.72,0.24 0.72,0.48 0.96,0.24 0.72,0.48 0.72,0.24 0.96,0.24 0.72,0.48 0.72,0.24 0.96,0.24 0.72,0.48 0.96,0.24 0.72,0.24 0.72,0.48 0.96,0.24 0.72,0.48 0.72,0.24 0.96,0.24 0.72,0.48 0.72,0.24 0.96,0.48 0.72,0.24 0.96,0.24 0.72,0.48 0.72,0.24 0.96,0.24 0.72,0.48 0.72,0.24 0.96,0.48 0.72,0.24 0.72,0.24 0.96,0.48 0.72,0.24 0.96,0.24"
       style="fill:none;stroke:#11aabb;stroke-width:0.5;stroke-linecap:butt;stroke-linejoin:round;stroke-miterlimit:10;stroke-dasharray:none;stroke-opacity:1"
       id="path934" /><path
       d="m 495.2,178.32 0.72,0.48 0.72,0.24 0.96,0.48 0.72,0.24 0.72,0.24 0.96,0.48 0.72,0.24 0.72,0.24 0.96,0.48 0.72,0.24 0.72,0.48 0.96,0.24 0.72,0.24 0.72,0.48 0.96,0.24 0.72,0.24 0.96,0.48 0.72,0.24 0.72,0.48 0.96,0.24 0.72,0.24 0.72,0.48 0.96,0.24 0.72,0.24 0.72,0.48 0.96,0.24 0.72,0.48 0.96,0.24 0.72,0.24 0.72,0.48 0.96,0.24 0.72,0.24 0.72,0.48 0.96,0.24 0.72,0.48 0.72,0.24 0.96,0.24 0.72,0.48 0.96,0.24 0.72,0.48 0.72,0.24 0.96,0.24 0.72,0.48 0.72,0.24 0.96,0.24 0.72,0.48 0.72,0.24 0.96,0.48 0.72,0.24 0.72,0.24 0.96,0.48 0.72,0.24 0.96,0.24 0.72,0.48 0.72,0.24 0.96,0.48 0.72,0.24 0.72,0.24 0.96,0.48 0.72,0.24 0.72,0.24 0.96,0.48 0.72,0.24 0.72,0.48 0.96,0.24 0.72,0.24 0.96,0.48 0.72,0.24 0.72,0.24 0.96,0.48 h 0.24"
       style="fill:none;stroke:#11aabb;stroke-width:0.5;stroke-linecap:butt;stroke-linejoin:round;stroke-miterlimit:10;stroke-dasharray:none;stroke-opacity:1"
       id="path936" /><path
       d="m 100.16,90.96 0.72,1.2 0.72,1.92 0.72,2.16 0.96,2.4 0.72,2.16 0.72,2.16 0.96,1.92 0.72,2.4 0.96,2.16 0.72,1.92 0.72,2.16 0.96,1.92 0.72,1.44 0.72,1.68 0.96,1.68 0.72,0.96 0.72,1.2 0.96,1.2 0.72,0.96 0.72,1.2 0.96,0.72 0.72,0.96 0.72,0.96 0.96,0.96 0.72,0.96 0.96,1.2 0.72,0.72 0.72,0.96 0.96,0.96 0.72,0.96 0.72,0.72 0.96,0.96 0.72,0.72 0.72,0.96 0.96,0.72 0.72,0.96 0.96,0.72 0.72,0.96 0.72,0.72 0.96,0.72 0.72,0.96 0.72,0.96 0.96,0.96 0.72,0.96 0.72,0.96 0.96,0.96 0.72,0.72 0.96,0.96 0.72,0.72 0.72,0.72 0.96,0.72 0.72,0.72 0.72,0.96 0.96,0.72 0.72,0.48 0.72,0.48 0.96,0.24 0.72,0.48 0.72,0.48 0.96,0.48 0.72,0.48 0.96,0.48 0.72,0.48 0.72,0.48 0.96,0.48 0.72,0.24 0.72,0.48 0.96,0.24 0.72,0.24 0.72,0.48 0.96,0.24 0.72,0.24 0.72,0.24 0.96,0.24 0.72,0.24 h 0.96 0.72 0.72 0.96 l 0.72,-0.24 h 0.72 l 0.96,-0.24 0.72,-0.24 h 0.72 l 0.96,-0.24 h 0.72 0.96 l 0.72,0.24 h 0.72 0.96 l 0.72,0.24 0.72,0.48 0.96,1.68 0.72,4.56 0.72,1.68 0.96,0.72 0.72,0.48 0.72,0.24 0.96,0.24 h 0.72 l 0.96,0.24 0.72,0.24 0.72,0.24 0.96,0.24 0.72,-0.24 0.72,-1.2 0.96,-3.84 0.72,-0.72 h 0.72 l 0.96,0.48 0.72,0.48 0.72,0.96 0.96,0.96 0.72,1.92 0.96,1.68 0.72,1.44 0.72,2.16 0.96,2.64 0.72,2.4 0.72,2.88 0.96,4.56 0.72,4.32 0.72,3.12 0.96,3.12 0.72,2.88 0.96,2.64 0.72,2.16 0.72,2.88 0.96,3.36 0.72,3.6 0.72,3.36 0.96,3.12 0.72,1.68 0.72,-0.24 0.96,0.24 0.72,1.2 0.72,0.48 h 0.96 L 212,228 l 0.96,-0.48 0.72,-0.72 0.72,-1.44 0.96,-2.16 0.72,-2.16 0.72,-1.44 0.96,-0.24 0.72,1.44 0.72,0.72 0.96,0.48 0.72,1.2 0.72,1.44 0.96,2.16 0.72,1.44 0.96,1.44 0.72,1.44 0.72,1.2 0.96,0.96 0.72,0.72 0.72,0.24 0.96,-1.44 0.72,-0.72 h 0.72 0.96 l 0.72,0.24 h 0.72 l 0.96,0.48 0.72,0.48 0.96,0.48 0.72,0.72 0.72,0.72 0.96,0.96 0.72,0.72 0.72,0.96 0.96,0.72 0.72,0.72 0.72,0.72 0.96,0.48 0.72,0.24 0.96,0.48 0.72,0.48 0.72,0.72"
       style="fill:none;stroke:#12bdb9;stroke-width:0.5;stroke-linecap:butt;stroke-linejoin:round;stroke-miterlimit:10;stroke-dasharray:none;stroke-opacity:1"
       id="path940" /><path
       d="m 245.84,242.4 0.96,0.96 0.72,0.72 0.72,0.96 0.96,0.96 0.72,1.2 0.72,1.2 0.96,1.2 0.72,1.2 0.96,1.44 0.72,1.44 0.72,1.44 0.96,1.68 0.72,1.44 0.72,1.68 0.96,1.68 0.72,1.68 0.72,1.44 0.96,1.68 0.72,1.44 0.72,1.68 0.96,1.44 0.72,1.2 0.72,1.44 0.96,1.2 0.72,1.2 0.96,1.2 0.72,1.2 0.72,0.96 0.96,1.2 0.72,0.96 0.72,0.96 0.96,0.72 0.72,0.96 0.72,0.96 0.96,0.72 0.72,0.96 0.96,0.72 0.72,0.72 0.72,0.72 0.96,0.72 0.72,0.72 0.72,0.72 0.96,0.72 0.72,0.72 0.72,0.48 0.96,0.48 0.72,0.72 0.96,0.48 0.72,0.48 0.72,0.24 0.96,0.48 0.72,0.48 0.72,0.24 0.96,0.24 0.72,0.24 0.72,0.24 0.96,0.24 0.72,0.24 h 0.72 0.96 l 0.72,0.24 h 0.72 0.96 l 0.72,-0.24 h 0.96 0.72 l 0.72,-0.24 0.96,-0.24 h 0.72 l 0.72,-0.24 0.96,-0.24 0.72,-0.24 0.72,-0.24 0.96,-0.48 0.72,-0.24 0.96,-0.24 0.72,-0.48 0.72,-0.24 0.96,-0.48 0.72,-0.48 0.72,-0.72 0.96,-0.48 0.72,-0.48 0.72,-0.72 0.96,-0.72 0.72,-0.72 0.96,-0.72 0.72,-0.96 0.72,-0.72 0.96,-0.96 0.72,-0.72 0.72,-0.96 0.96,-0.96 0.72,-0.96 0.72,-0.72 0.96,-0.96 0.72,-0.96 0.72,-0.96 0.96,-0.96 0.72,-0.96 0.96,-1.2 0.72,-0.96 0.72,-0.96 0.96,-1.2 0.72,-0.96 0.72,-1.2 0.96,-1.2 0.72,-1.2 0.72,-1.2 0.96,-1.2 0.72,-1.2 0.72,-1.2 0.96,-1.2 0.72,-1.2 0.96,-1.44 0.72,-1.2 0.72,-1.2 0.96,-1.44 0.72,-1.2 0.72,-1.2 0.96,-1.44 0.72,-1.2 0.72,-1.44 0.96,-1.2 0.72,-1.2 0.96,-1.44 0.72,-1.44 0.72,-1.2 0.96,-1.44 0.72,-1.2 0.72,-1.44 0.96,-1.2 0.72,-1.44 0.72,-1.2 0.96,-1.44 0.72,-1.2 0.72,-1.44 0.96,-1.44 0.72,-1.2 0.96,-1.44 0.72,-1.2 0.72,-1.44 0.96,-1.44 0.72,-1.2 0.72,-1.44 0.96,-1.2 0.72,-1.44 0.72,-1.44 0.96,-1.2 0.72,-1.44 0.72,-1.2 0.96,-1.44 0.72,-1.2 0.96,-1.44 0.72,-1.2 0.72,-1.44 0.96,-1.2 0.72,-1.44 0.72,-1.44 0.96,-1.2 0.72,-1.44 0.72,-1.2 0.96,-1.44 0.72,-1.2 0.96,-1.44 0.72,-1.2 0.72,-1.44 0.96,-1.2 0.72,-1.44 0.72,-1.2 0.96,-1.2 0.72,-1.44 0.72,-1.2 0.96,-1.2 0.72,-1.2 0.72,-1.44 0.96,-1.2 0.72,-1.2 0.96,-1.2 0.72,-1.2 0.72,-1.2 0.96,-0.96 0.72,-1.2 0.72,-1.2 0.96,-0.96 0.72,-1.2 0.72,-0.96 0.96,-0.96 0.72,-0.96 0.72,-0.96 0.96,-0.96 0.72,-0.96 0.96,-0.72 0.72,-0.96 0.72,-0.72 0.96,-0.72 0.72,-0.72 0.72,-0.72 0.96,-0.48 0.72,-0.72 0.72,-0.48 0.96,-0.48 0.72,-0.48 0.72,-0.48 0.96,-0.48 0.72,-0.24 0.96,-0.24 0.72,-0.48 0.72,-0.24 0.96,-0.24 H 416 l 0.72,-0.24 h 0.96 l 0.72,-0.24 h 0.72 0.96 0.72 0.96 0.72 0.72 l 0.96,0.24 h 0.72 0.72 l 0.96,0.24 0.72,0.24 H 428 l 0.96,0.24 0.72,0.24 0.96,0.24 0.72,0.24 0.72,0.24 h 0.96 l 0.72,0.24 0.72,0.24 0.96,0.48 0.72,0.24 0.72,0.24 0.96,0.24 0.72,0.24 0.72,0.24 0.96,0.24 0.72,0.48 0.72,0.24 0.96,0.24 0.72,0.24 0.96,0.24 0.72,0.48 0.72,0.24 0.96,0.24 0.72,0.48 0.72,0.24 0.96,0.24 0.72,0.24 0.72,0.48 0.96,0.24 0.72,0.24 0.96,0.48 0.72,0.24 0.72,0.24 0.96,0.48 0.72,0.24 0.72,0.24 0.96,0.48 0.72,0.24 0.72,0.24 0.96,0.48 0.72,0.24 0.96,0.48 0.72,0.24 0.72,0.24 0.96,0.48 0.72,0.24 0.72,0.24 0.96,0.48 0.72,0.24 0.72,0.48 0.96,0.24 0.72,0.24 0.72,0.48 0.96,0.24 0.72,0.24 0.72,0.48 0.96,0.24 0.72,0.24 0.96,0.48 0.72,0.24 0.72,0.48 0.96,0.24 0.72,0.24 0.72,0.48 0.96,0.24 0.72,0.24 0.72,0.48 0.96,0.24 0.72,0.48 0.96,0.24 0.72,0.24 0.72,0.48 0.96,0.24 0.72,0.24"
       style="fill:none;stroke:#12bdb9;stroke-width:0.5;stroke-linecap:butt;stroke-linejoin:round;stroke-miterlimit:10;stroke-dasharray:none;stroke-opacity:1"
       id="path942" /><path
       d="m 487.76,175.44 0.72,0.48 0.96,0.24 0.72,0.48 0.72,0.24 0.96,0.24 0.72,0.48 0.96,0.24 0.72,0.24 0.72,0.48 0.96,0.24 0.72,0.48 0.72,0.24 0.96,0.24 0.72,0.48 0.72,0.24 0.96,0.24 0.72,0.48 0.72,0.24 0.96,0.48 0.72,0.24 0.96,0.24 0.72,0.48 0.72,0.24 0.96,0.24 0.72,0.48 0.72,0.24 0.96,0.48 0.72,0.24 0.72,0.24 0.96,0.48 0.72,0.24 0.72,0.24 0.96,0.48 0.72,0.24 0.96,0.48 0.72,0.24 0.72,0.24 0.96,0.48 0.72,0.24 0.72,0.24 0.96,0.48 0.72,0.24 0.72,0.48 0.96,0.24 0.72,0.24 0.96,0.48 0.72,0.24 0.72,0.24 0.96,0.48 0.72,0.24 0.72,0.48 0.96,0.24 0.72,0.24 0.72,0.48 0.96,0.24 0.72,0.48 0.72,0.24 0.96,0.24 0.72,0.48 0.96,0.24 0.72,0.24 0.72,0.48 0.96,0.24 0.72,0.48 0.72,0.24 0.96,0.24 0.72,0.48 0.72,0.24 0.96,0.24 0.72,0.48 0.72,0.24 0.96,0.48 0.72,0.24 0.96,0.24 0.72,0.48 0.72,0.24 0.96,0.24 0.72,0.48 0.72,0.24 0.48,0.24"
       style="fill:none;stroke:#12bdb9;stroke-width:0.5;stroke-linecap:butt;stroke-linejoin:round;stroke-miterlimit:10;stroke-dasharray:none;stroke-opacity:1"
       id="path944" /><path
       d="m 100.16,78.72 0.48,0.72 0.72,1.92 0.72,1.68 0.96,1.68 0.72,1.68 0.72,1.68 0.96,1.92 0.72,1.92 0.72,1.92 0.96,2.16 0.72,2.16 0.96,2.16 0.72,2.16 0.72,2.16 0.96,2.16 0.72,2.16 0.72,2.16 0.96,2.16 0.72,1.92 0.72,1.44 0.96,1.68 0.72,1.44 0.72,1.2 0.96,1.2 0.72,0.96 0.96,1.2 0.72,0.96 0.72,0.96 0.96,0.96 0.72,0.96 0.72,0.96 0.96,0.96 0.72,0.96 0.72,0.96 0.96,0.96 0.72,0.72 0.96,0.96 0.72,0.96 0.72,0.72 0.96,0.96 0.72,0.72 0.72,0.72 0.96,0.96 0.72,0.96 0.72,0.72 0.96,0.96 0.72,0.72 0.72,0.72 0.96,0.96 0.72,1.2 0.96,1.2 0.72,1.2 0.72,0.72 0.96,0.96 0.72,0.96 0.72,0.72 0.96,0.96 0.72,0.72 0.72,0.96 0.96,0.96 0.72,0.96 0.96,0.72 0.72,0.48 0.72,0.24 0.96,0.24 0.72,0.48 0.72,0.48 0.96,0.72 0.72,0.48 0.72,0.48 0.96,0.24 0.72,0.48 0.72,0.24 0.96,0.48 0.72,0.24 0.96,0.48 0.72,0.24 0.72,0.24 0.96,0.48 0.72,0.24 0.72,0.24 0.96,0.24 0.72,0.24 h 0.72 0.96 0.72 0.72 0.96 0.72 0.96 0.72 0.72 l 0.96,0.24 0.72,0.24 h 0.72 l 0.96,0.24 0.72,0.24 0.72,0.48 0.96,0.72 0.72,1.92 0.96,5.04 0.72,1.68 0.72,0.96 0.96,0.72 0.72,0.48 0.72,0.24 0.96,0.24 0.72,0.48 0.72,0.24 0.96,0.48 0.72,0.24 0.72,-0.24 0.96,-1.2 0.72,-4.08 0.96,-0.72 h 0.72 l 0.72,0.48 0.96,0.72 0.72,0.96 0.72,1.2 0.96,1.92 0.72,1.68 0.72,1.92 0.96,2.16 0.72,2.64 0.72,2.4 0.96,3.12 0.72,4.8 0.96,4.32 0.72,3.12 0.72,3.12 0.96,2.88 0.72,2.64 0.72,2.4 0.96,2.88"
       style="fill:none;stroke:#22ccaa;stroke-width:0.5;stroke-linecap:butt;stroke-linejoin:round;stroke-miterlimit:10;stroke-dasharray:none;stroke-opacity:1"
       id="path948" /><path
       d="m 208.64,218.64 0.72,3.36 0.72,3.6 0.96,3.36 0.72,3.12 0.96,1.68 0.72,-0.24 0.72,0.24 0.96,1.2 0.72,0.48 h 0.72 l 0.96,-0.24 0.72,-0.24 0.72,-0.96 0.96,-1.44 0.72,-2.16 0.72,-1.92 0.96,-1.68 0.72,-0.24 0.96,1.68 0.72,0.48 0.72,0.48 0.96,1.2 0.72,1.44 0.72,1.92 0.96,1.68 0.72,1.2 0.72,1.44 0.96,0.96 0.72,0.96 0.72,0.72 h 0.96 l 0.72,-1.44 0.96,-0.72 h 0.72 0.72 l 0.96,0.24 0.72,-0.24 0.72,0.48 0.96,0.48 0.72,0.48 0.72,0.72 0.96,0.72 0.72,0.72 0.96,0.72 0.72,0.96 0.72,0.72 0.96,0.72 0.72,0.48 0.72,0.24 0.96,0.48 0.72,0.24 0.72,0.72 0.96,0.48 0.72,0.72 0.96,0.72 0.72,0.96 0.72,0.96 0.96,0.96 0.72,1.2 0.72,0.96 0.96,1.2 0.72,1.44 0.72,1.2 0.96,1.44 0.72,1.44 0.72,1.44 0.96,1.44 0.72,1.68 0.72,1.44 0.96,1.44 0.72,1.44 0.96,1.44 0.72,1.2 0.72,1.44 0.96,1.2 0.72,1.2 0.72,1.2 0.96,0.96 0.72,1.2 0.72,0.96 0.96,0.96 0.72,0.96 0.96,0.96 0.72,0.72 0.72,0.96 0.96,0.72 0.72,0.96 0.72,0.72 0.96,0.72 0.72,0.72 0.72,0.72 0.96,0.72 0.72,0.72 0.72,0.72 0.96,0.72 0.72,0.48 0.96,0.72 0.72,0.48 0.72,0.72 0.96,0.48 0.72,0.48 0.72,0.48 0.96,0.24 0.72,0.48 0.72,0.48 0.96,0.24 0.72,0.24 0.72,0.24 0.96,0.24 0.72,0.24 h 0.96 l 0.72,0.24 h 0.72 l 0.96,0.24 h 0.72 0.72 l 0.96,-0.24 h 0.72 l 0.72,-0.24 h 0.96 l 0.72,-0.24 0.96,-0.24 h 0.72 l 0.72,-0.24 0.96,-0.24 0.72,-0.48 0.72,-0.24 0.96,-0.24 0.72,-0.24 0.72,-0.48 0.96,-0.24 0.72,-0.48 0.72,-0.48 0.96,-0.72 0.72,-0.48 0.96,-0.48 0.72,-0.72 0.72,-0.72 0.96,-0.72 0.72,-0.72 0.72,-0.96 0.96,-0.72 0.72,-0.96 0.72,-0.72 0.96,-0.96 0.72,-0.96 0.96,-0.72 0.72,-0.96 0.72,-0.96 0.96,-0.96 0.72,-0.96 0.72,-0.96 0.96,-0.96 0.72,-0.96 0.72,-1.2 0.96,-0.96 0.72,-1.2 0.72,-0.96 0.96,-1.2 0.72,-1.2 0.96,-1.2 0.72,-0.96 0.72,-1.2 0.96,-1.2 0.72,-1.44 0.72,-1.2 0.96,-1.2 0.72,-1.2 0.72,-1.44 0.96,-1.2 0.72,-1.2 0.72,-1.44 0.96,-1.2 0.72,-1.2 0.96,-1.44 0.72,-1.2 0.72,-1.44 0.96,-1.2 0.72,-1.44 0.72,-1.2 0.96,-1.44 0.72,-1.2 0.72,-1.44 0.96,-1.2 0.72,-1.44 0.96,-1.2 0.72,-1.44 0.72,-1.2 0.96,-1.44 0.72,-1.44 0.72,-1.2 0.96,-1.44 0.72,-1.2 0.72,-1.44 0.96,-1.2 0.72,-1.44 0.72,-1.44 0.96,-1.2 0.72,-1.44 0.96,-1.2 0.72,-1.44 0.72,-1.2 0.96,-1.44 0.72,-1.44 0.72,-1.2 0.96,-1.44 0.72,-1.2 0.72,-1.44 0.96,-1.2 0.72,-1.44 0.72,-1.2 0.96,-1.44 0.72,-1.2 0.96,-1.44 0.72,-1.2 0.72,-1.44 0.96,-1.2 0.72,-1.44 0.72,-1.2 0.96,-1.44 0.72,-1.2 0.72,-1.2 0.96,-1.44 0.72,-1.2 0.96,-1.44 0.72,-1.2 0.72,-1.2 0.96,-1.2 0.72,-1.2 0.72,-1.2 0.96,-1.2 0.72,-1.2 0.72,-1.2 0.96,-1.2 0.72,-1.2 0.72,-0.96 0.96,-1.2 0.72,-0.96 0.96,-1.2 0.72,-0.96 0.72,-0.96 0.96,-0.96 0.72,-0.96 0.72,-0.72 0.96,-0.96 0.72,-0.72 0.72,-0.96 0.96,-0.72 0.72,-0.72 0.72,-0.72 0.96,-0.48 0.72,-0.72 0.96,-0.48 0.72,-0.48 0.72,-0.48 0.96,-0.48 0.72,-0.48 0.72,-0.24 0.96,-0.48 0.72,-0.24 0.72,-0.24 0.96,-0.24 h 0.72 l 0.96,-0.24 0.72,-0.24 h 0.72 0.96 0.72 l 0.72,-0.24 0.96,0.24 h 0.72 0.72 0.96 l 0.72,0.24 h 0.72 l 0.96,0.24 h 0.72 l 0.96,0.24 0.72,0.24 0.72,0.24 h 0.96 l 0.72,0.24 0.72,0.24 0.96,0.24 0.72,0.24 0.72,0.24 0.96,0.24 0.72,0.24 0.72,0.24 0.96,0.24 0.72,0.48 0.96,0.24 0.72,0.24 0.72,0.24 0.96,0.24 0.72,0.48 0.72,0.24 0.96,0.24 0.72,0.24 0.72,0.48"
       style="fill:none;stroke:#22ccaa;stroke-width:0.5;stroke-linecap:butt;stroke-linejoin:round;stroke-miterlimit:10;stroke-dasharray:none;stroke-opacity:1"
       id="path950" /><path
       d="m 450.32,161.52 0.96,0.24 0.72,0.24 0.96,0.24 0.72,0.48 0.72,0.24 0.96,0.24 0.72,0.48 0.72,0.24 0.96,0.24 0.72,0.48 0.72,0.24 0.96,0.24 0.72,0.48 0.72,0.24 0.96,0.24 0.72,0.48 0.96,0.24 0.72,0.24 0.72,0.48 0.96,0.24 0.72,0.24 0.72,0.48 0.96,0.24 0.72,0.24 0.72,0.48 0.96,0.24 0.72,0.48 0.72,0.24 0.96,0.24 0.72,0.48 0.96,0.24 0.72,0.24 0.72,0.48 0.96,0.24 0.72,0.48 0.72,0.24 0.96,0.24 0.72,0.48 0.72,0.24 0.96,0.24 0.72,0.48 0.96,0.24 0.72,0.48 0.72,0.24 0.96,0.24 0.72,0.48 0.72,0.24 0.96,0.24 0.72,0.48 0.72,0.24 0.96,0.48 0.72,0.24 0.72,0.24 0.96,0.48 0.72,0.24 0.96,0.24 0.72,0.48 0.72,0.24 0.96,0.48 0.72,0.24 0.72,0.24 0.96,0.48 0.72,0.24 0.72,0.24 0.96,0.48 0.72,0.24 0.96,0.48 0.72,0.24 0.72,0.24 0.96,0.48 0.72,0.24 0.72,0.24 0.96,0.48 0.72,0.24 0.72,0.48 0.96,0.24 0.72,0.24 0.72,0.48 0.96,0.24 0.72,0.24 0.96,0.48 0.72,0.24 0.72,0.48 0.96,0.24 0.72,0.24 0.72,0.48 0.96,0.24 0.72,0.24 0.72,0.48 0.96,0.24 0.72,0.48 0.72,0.24 0.96,0.24 0.72,0.48 0.96,0.24 0.72,0.24 0.72,0.48 0.96,0.24 0.72,0.48 0.72,0.24 0.96,0.24 0.72,0.48 0.72,0.24 0.96,0.24 0.72,0.48 0.96,0.24 0.72,0.48 0.72,0.24 0.96,0.24 0.72,0.48 0.72,0.24 0.96,0.24 0.72,0.48 0.72,0.24 0.96,0.48 0.72,0.24 0.72,0.24 0.96,0.48 0.72,0.24 0.96,0.48 0.72,0.24 0.72,0.24 0.96,0.48 0.72,0.24 0.72,0.24 0.72,0.48"
       style="fill:none;stroke:#22ccaa;stroke-width:0.5;stroke-linecap:butt;stroke-linejoin:round;stroke-miterlimit:10;stroke-dasharray:none;stroke-opacity:1"
       id="path952" /><path
       d="m 100.16,68.64 0.24,0.24 0.72,1.92 0.96,1.92 0.72,1.92 0.72,1.92 0.96,1.92 0.72,1.68 0.72,1.92 0.96,1.68 0.72,1.68 0.96,1.68 0.72,1.68 0.72,1.92 0.96,1.92 0.72,1.92 0.72,2.16 0.96,2.16 0.72,2.16 0.72,2.16 0.96,2.16 0.72,2.16 0.72,2.16 0.96,2.16 0.72,2.16 0.96,1.92 0.72,1.44 0.72,1.68 0.96,1.44 0.72,1.2 0.72,1.2 0.96,0.96 0.72,1.2 0.72,0.96 0.96,0.96 0.72,0.96 0.96,0.96 0.72,0.96 0.72,0.96 0.96,0.96 0.72,0.96 0.72,0.96 0.96,0.72 0.72,0.96 0.72,0.96 0.96,0.72 0.72,0.96 0.72,0.72 0.96,0.96 0.72,0.72 0.96,0.96 0.72,0.72 0.72,0.96 0.96,0.72 0.72,0.72 0.72,1.2 0.96,0.96 0.72,1.2 0.72,1.2 0.96,0.96 0.72,0.96 0.72,0.96 0.96,0.96 0.72,0.72 0.96,0.96 0.72,0.96 0.72,1.2 0.96,0.72 0.72,0.72 0.72,0.48 0.96,0.24 0.72,0.48 0.72,0.48 0.96,0.48 0.72,0.48 0.72,0.48 0.96,0.48 0.72,0.48 0.96,0.24 0.72,0.48 0.72,0.24 0.96,0.48 0.72,0.24 0.72,0.48 0.96,0.24 0.72,0.24 0.72,0.24 0.96,0.24 0.72,0.24 0.96,0.24 0.72,0.24 h 0.72 0.96 l 0.72,0.24 h 0.72"
       style="fill:none;stroke:#69d025;stroke-width:0.5;stroke-linecap:butt;stroke-linejoin:round;stroke-miterlimit:10;stroke-dasharray:none;stroke-opacity:1"
       id="path956" /><path
       d="m 175.28,166.32 h 2.4 l 0.96,0.24 0.72,0.24 0.72,0.24 h 0.96 l 0.72,0.24 0.96,0.48 0.72,0.48 0.72,0.72 0.96,2.16 0.72,5.04 0.72,1.92 0.96,0.96 0.72,0.72 0.72,0.48 0.96,0.48 0.72,0.24 0.72,0.48 0.96,0.48 0.72,0.24 0.96,0.48 h 0.72 l 0.72,-1.44 0.96,-3.84 0.72,-0.72 0.72,0.24 0.96,0.48 0.72,0.72 0.72,1.2 0.96,1.2 0.72,2.16 0.96,1.68 0.72,1.68 0.72,2.4 0.96,2.64 0.72,2.64 0.72,3.12 0.96,4.56 0.72,4.32 0.72,3.12 0.96,3.12 0.72,3.12 0.96,2.64 0.72,2.16 0.72,2.88 0.96,3.6 0.72,3.36 0.72,3.36 0.96,3.12 0.72,1.68 0.72,-0.24 0.96,0.24 0.72,1.2 0.72,0.48 0.96,0.24 0.72,-0.24 0.72,-0.24 0.96,-0.72 0.72,-1.44 0.96,-1.92 0.72,-1.92 0.72,-1.44 0.96,-0.24 0.72,1.68 0.72,0.72 0.96,0.24 0.72,1.2 0.72,1.44 0.96,1.92 0.72,1.44 0.96,1.2 0.72,1.44 0.72,0.96 0.96,0.96 0.72,0.48 0.72,0.24 0.96,-1.2 0.72,-0.72 h 0.72 0.96 l 0.72,0.24 h 0.96 l 0.72,0.48 0.72,0.72 0.96,0.48 0.72,0.96 0.72,0.72 0.96,0.96 0.72,0.96 0.72,0.72 0.96,0.96 0.72,0.72 0.72,0.72 0.96,0.48 0.72,0.48 0.72,0.48 0.96,0.72 0.72,0.72 0.96,0.72 0.72,0.96 0.72,0.96 0.96,0.96 0.72,0.96 0.72,1.2 0.96,1.2 0.72,1.2 0.72,1.44 0.96,1.2 0.72,1.44 0.96,1.44 0.72,1.44 0.72,1.44 0.96,1.44 0.72,1.44 0.72,1.2 0.96,1.44 0.72,1.2 0.72,1.2 0.96,1.2 0.72,0.96 0.96,0.96 0.72,0.96 0.72,0.96 0.96,0.96 0.72,0.72 0.72,0.72 0.96,0.72 0.72,0.72 0.72,0.72 0.96,0.72 0.72,0.72 0.72,0.48 0.96,0.72 0.72,0.48 0.96,0.72 0.72,0.48 0.72,0.72 0.96,0.48 0.72,0.48 0.72,0.48 0.96,0.72 0.72,0.24 0.72,0.48 0.96,0.48 0.72,0.48 0.72,0.24 0.96,0.48 0.72,0.24 0.96,0.24 0.72,0.24 0.72,0.24 0.96,0.24 0.72,0.24 h 0.72 0.96 l 0.72,0.24 h 0.72 0.96 0.72 l 0.96,-0.24 h 0.72 l 0.72,-0.24 h 0.96 l 0.72,-0.24 0.72,-0.24 0.96,-0.24 0.72,-0.24 0.72,-0.24 0.96,-0.48 0.72,-0.24 0.72,-0.24 0.96,-0.48 0.72,-0.24 0.96,-0.48 0.72,-0.24 0.72,-0.48 0.96,-0.48 0.72,-0.72 0.72,-0.48 0.96,-0.72 0.72,-0.48 0.72,-0.72 0.96,-0.72 0.72,-0.96 0.72,-0.72 0.96,-0.96 0.72,-0.72 0.96,-0.96 0.72,-0.96 0.72,-0.96 0.96,-0.72 0.72,-0.96 0.72,-0.96 0.96,-0.96 0.72,-0.96 0.72,-1.2 0.96,-0.96 0.72,-0.96 0.72,-0.96 0.96,-1.2 0.72,-0.96 0.96,-1.2 0.72,-1.2 0.72,-0.96 0.96,-1.2 0.72,-1.2 0.72,-1.2 0.96,-1.2 0.72,-1.44 0.72,-1.2 0.96,-1.2 0.72,-1.2 0.96,-1.44 0.72,-1.2 0.72,-1.2 0.96,-1.44 0.72,-1.2 0.72,-1.44 0.96,-1.2 0.72,-1.44 0.72,-1.2 0.96,-1.44 0.72,-1.2 0.72,-1.44 0.96,-1.2 0.72,-1.44 0.96,-1.44 0.72,-1.2 0.72,-1.44 0.96,-1.2 0.72,-1.44 0.72,-1.2 0.96,-1.44 0.72,-1.44 0.72,-1.2 0.96,-1.44 0.72,-1.2 0.72,-1.44 0.96,-1.44 0.72,-1.2 0.96,-1.44 0.72,-1.44 0.72,-1.2 0.96,-1.44 0.72,-1.2 0.72,-1.44 0.96,-1.2 0.72,-1.44 0.72,-1.44 0.96,-1.2 0.72,-1.44 0.96,-1.2 0.72,-1.44 0.72,-1.2 0.96,-1.44 0.72,-1.2 0.72,-1.44 0.96,-1.2 0.72,-1.44 0.72,-1.2 0.96,-1.44 0.72,-1.2 0.72,-1.2 0.96,-1.44 0.72,-1.2 0.96,-1.44 0.72,-1.2 0.72,-1.2 0.96,-1.2 0.72,-1.44 0.72,-1.2 0.96,-1.2 0.72,-1.2 0.72,-1.2 0.96,-1.2 0.72,-0.96 0.72,-1.2 0.96,-1.2 0.72,-0.96 0.96,-1.2 0.72,-0.96 0.72,-0.96 0.96,-0.96 0.72,-0.96 0.72,-0.96 0.96,-0.96 0.72,-0.72 0.72,-0.96 0.96,-0.72 0.72,-0.72 0.96,-0.72 0.72,-0.72 0.72,-0.48 0.96,-0.72 0.72,-0.48 0.72,-0.48 0.96,-0.48 0.72,-0.48"
       style="fill:none;stroke:#69d025;stroke-width:0.5;stroke-linecap:butt;stroke-linejoin:round;stroke-miterlimit:10;stroke-dasharray:none;stroke-opacity:1"
       id="path958" /><path
       d="m 417.2,159.6 0.72,-0.48 0.96,-0.24 0.72,-0.24 0.96,-0.48 0.72,-0.24 H 422 l 0.96,-0.24 0.72,-0.24 h 0.72 l 0.96,-0.24 h 0.72 0.72 0.96 0.72 0.72 l 0.96,0.24 h 0.72 0.72 l 0.96,0.24 h 0.72 l 0.96,0.24 0.72,0.24 h 0.72 l 0.96,0.24 0.72,0.24 0.72,0.24 0.96,0.24 0.72,0.24 0.72,0.24 0.96,0.24 0.72,0.24 0.96,0.24 0.72,0.24 0.72,0.24 0.96,0.48 0.72,0.24 0.72,0.24 0.96,0.24 0.72,0.24 0.72,0.48 0.96,0.24 0.72,0.24 0.96,0.24 0.72,0.48 0.72,0.24 0.96,0.24 0.72,0.24 0.72,0.48 0.96,0.24 0.72,0.24 0.72,0.48 0.96,0.24 0.72,0.24 0.72,0.48 0.96,0.24 0.72,0.24 0.96,0.48 0.72,0.24 0.72,0.24 0.96,0.48 0.72,0.24 0.72,0.24 0.96,0.48 0.72,0.24 0.72,0.48 0.96,0.24 0.72,0.24 0.72,0.48 0.96,0.24 0.72,0.24 0.96,0.48 0.72,0.24 0.72,0.24 0.96,0.48 0.72,0.24 0.72,0.48 0.96,0.24 0.72,0.24 0.72,0.48 0.96,0.24 0.72,0.24 0.72,0.48 0.96,0.24 0.72,0.48 0.96,0.24 0.72,0.24 0.72,0.48 0.96,0.24 0.72,0.24 0.72,0.48 0.96,0.24 0.72,0.48 0.72,0.24 0.96,0.24 0.72,0.48 0.96,0.24 0.72,0.24 0.72,0.48 0.96,0.24 0.72,0.48 0.72,0.24 0.96,0.24 0.72,0.48 0.72,0.24 0.96,0.24 0.72,0.48 0.72,0.24 0.96,0.48 0.72,0.24 0.96,0.24 0.72,0.48 0.72,0.24 0.96,0.24 0.72,0.48 0.72,0.24 0.96,0.48 0.72,0.24 0.72,0.24 0.96,0.48 0.72,0.24 0.72,0.24 0.96,0.48 0.72,0.24 0.96,0.48 0.72,0.24 0.72,0.24 0.96,0.48 0.72,0.24 0.72,0.24 0.96,0.48 0.72,0.24 0.72,0.48 0.96,0.24 0.72,0.24 0.96,0.48 0.72,0.24 0.72,0.24 0.96,0.48 0.72,0.24 0.72,0.48 0.96,0.24 0.72,0.24 0.72,0.48 0.96,0.24 0.72,0.24 0.72,0.48 0.96,0.24 0.72,0.48 0.96,0.24 0.72,0.24 0.72,0.48 0.96,0.24 0.72,0.24 0.72,0.48 0.96,0.24 0.72,0.48 0.72,0.24 0.96,0.24 0.72,0.48 0.72,0.24 0.96,0.24 0.72,0.48 0.96,0.24 0.72,0.48 0.72,0.24 0.96,0.24 0.72,0.48"
       style="fill:none;stroke:#69d025;stroke-width:0.5;stroke-linecap:butt;stroke-linejoin:round;stroke-miterlimit:10;stroke-dasharray:none;stroke-opacity:1"
       id="path960" /><path
       d="m 101.84,63.6 0.24,0.48 0.72,1.92 0.96,1.92 0.72,2.16 0.72,1.68 0.96,1.92 0.72,1.92 0.96,1.92 0.72,1.92 0.72,1.68 0.96,1.92 0.72,1.68 0.72,1.68 0.96,1.68 0.72,1.68 0.72,1.92 0.96,1.92 0.72,1.92 0.72,2.16 0.96,2.16 0.72,2.16 0.96,2.16 0.72,2.16 0.72,2.16 0.96,2.16 0.72,2.16 0.72,2.16 0.96,1.92 0.72,1.44 0.72,1.68 0.96,1.44 0.72,1.2 0.96,1.2 0.72,0.96 0.72,1.2 0.96,0.96 0.72,0.96 0.72,0.96 0.96,0.96 0.72,0.96 0.72,0.96 0.96,0.96 0.72,0.96 0.72,0.96 0.96,0.72 0.72,0.96"
       style="fill:none;stroke:#69d025;stroke-width:0.833333;stroke-linecap:butt;stroke-linejoin:round;stroke-miterlimit:10;stroke-dasharray:7.68, 5.76;stroke-dashoffset:0;stroke-opacity:1"
       id="path964" /><path
       d="m 138.32,136.32 0.96,0.96 0.72,0.72 0.72,0.96 0.96,0.72 0.72,0.96 0.72,0.72 0.96,0.96 0.72,0.96 0.72,0.72 0.96,0.72 0.72,0.96 0.96,0.96 0.72,0.96 0.72,1.44 0.96,1.2 0.72,0.96 0.72,0.96 0.96,1.2 0.72,0.72 0.72,0.96 0.96,0.96 0.72,0.96 0.72,1.2 0.96,0.96 0.72,0.72 0.96,0.48 0.72,0.24 0.72,0.24 0.96,0.48 0.72,0.48 0.72,0.72 0.96,0.48 0.72,0.48 0.72,0.24 0.96,0.48 0.72,0.24 0.72,0.48 0.96,0.24 0.72,0.24 0.96,0.48 0.72,0.24 0.72,0.48 0.96,0.24 0.72,0.24 0.72,0.24 0.96,0.24 0.72,0.24 h 0.72 l 0.96,0.24 h 0.72 0.96 0.72 l 0.72,0.24 0.96,0.24 h 0.72 l 0.72,0.24 0.96,0.24 0.72,0.24 0.72,0.48 0.96,0.24 0.72,0.48 0.72,0.96 0.96,2.4 0.72,5.04 0.96,1.92 0.72,0.96 0.72,0.72 0.96,0.72 0.72,0.48 0.72,0.48 0.96,0.48 0.72,0.48 0.72,0.48 0.96,0.24 h 0.72 l 0.72,-1.2 0.96,-3.84 0.72,-0.72 0.96,0.24 0.72,0.72 0.72,0.96 0.96,0.96 0.72,1.44 0.72,2.16 0.96,1.68 0.72,1.92 0.72,2.4 0.96,2.64 0.72,2.64 0.96,3.12 0.72,4.56 0.72,4.32 0.96,3.12 0.72,3.12 0.72,3.12 0.96,2.64 0.72,2.16 0.72,2.88 0.96,3.36 0.72,3.6 0.72,3.36 0.96,2.88 0.72,1.68 0.96,-0.24 0.72,0.48 0.72,1.2 0.96,0.48 0.72,0.24 h 0.72 l 0.96,-0.24 0.72,-0.72 0.72,-1.2 0.96,-1.92 0.72,-1.68 0.72,-1.44 0.96,-0.24 0.72,1.68 0.96,0.72 0.72,0.24 0.72,1.2 0.96,1.44 0.72,1.68 0.72,1.44 0.96,1.2 0.72,1.44 0.72,0.96 0.96,0.72 0.72,0.72 0.96,0.24 0.72,-1.2 0.72,-0.48 h 0.96 0.72 l 0.72,0.48 h 0.96 l 0.72,0.48 0.72,0.72 0.96,0.72 0.72,0.72 0.72,0.96 0.96,0.96 0.72,1.2 0.96,0.96 0.72,0.96 0.72,0.72 0.96,0.72 0.72,0.72 0.72,0.48 0.96,0.72 0.72,0.72 0.72,0.72 0.96,0.96 0.72,0.72 0.72,0.96 0.96,1.2 0.72,0.96 0.96,1.2 0.72,1.2 0.72,1.2 0.96,1.44 0.72,1.2 0.72,1.44 0.96,1.2 0.72,1.44 0.72,1.44 0.96,1.2 0.72,1.2 0.96,1.44 0.72,0.96 0.72,1.2 0.96,0.96 0.72,0.96 0.72,0.96 0.96,0.96 0.72,0.72 0.72,0.72 0.96,0.72 0.72,0.48 0.72,0.72 0.96,0.48 0.72,0.72 0.96,0.48 0.72,0.48 0.72,0.48 0.96,0.48 0.72,0.48 0.72,0.48 0.96,0.48 0.72,0.48 0.72,0.48 0.96,0.48 0.72,0.48 0.72,0.48 0.96,0.48 0.72,0.24 0.96,0.48 0.72,0.48 0.72,0.24 0.96,0.24 0.72,0.24 0.72,0.24 0.96,0.24 0.72,0.24 0.72,0.24 0.96,0.24 h 0.72 0.96 l 0.72,0.24 h 0.72 0.96 0.72 l 0.72,-0.24 h 0.96 l 0.72,-0.24 h 0.72 l 0.96,-0.24 0.72,-0.24 0.72,-0.24 0.96,-0.24 0.72,-0.24 0.96,-0.24 0.72,-0.48 0.72,-0.24 0.96,-0.48 0.72,-0.24 0.72,-0.48 0.96,-0.24 0.72,-0.48 0.72,-0.48 0.96,-0.48 0.72,-0.48 0.72,-0.72 0.96,-0.72 0.72,-0.48 0.96,-0.72 0.72,-0.72 0.72,-0.96 0.96,-0.72 0.72,-0.96 0.72,-0.72 0.96,-0.96 0.72,-0.96 0.72,-0.96 0.96,-0.96 0.72,-0.96 0.96,-0.96 0.72,-0.96 0.72,-0.96 0.96,-0.96 0.72,-0.96 0.72,-0.96 0.96,-1.2 0.72,-0.96 0.72,-1.2 0.96,-0.96 0.72,-1.2 0.72,-1.2 0.96,-1.2 0.72,-1.2 0.96,-1.2 0.72,-1.2 0.72,-1.2 0.96,-1.2 0.72,-1.44 0.72,-1.2 0.96,-1.2 0.72,-1.44 0.72,-1.2 0.96,-1.44 0.72,-1.2 0.96,-1.2 0.72,-1.44 0.72,-1.2 0.96,-1.44 0.72,-1.2 0.72,-1.44 0.96,-1.44 0.72,-1.2 0.72,-1.44 0.96,-1.2 0.72,-1.44 0.72,-1.2 0.96,-1.44 0.72,-1.44 0.96,-1.2 0.72,-1.44 0.72,-1.2 0.96,-1.44 0.72,-1.44 0.72,-1.2 0.96,-1.44 0.72,-1.44 0.72,-1.2 0.96,-1.44 0.72,-1.2 0.72,-1.44 0.96,-1.2 0.72,-1.44 0.96,-1.44 0.72,-1.2"
       style="fill:none;stroke:#69d025;stroke-width:0.833333;stroke-linecap:butt;stroke-linejoin:round;stroke-miterlimit:10;stroke-dasharray:7.68, 5.76;stroke-dashoffset:0;stroke-opacity:1"
       id="path966" /><path
       d="m 380.24,215.52 0.72,-1.44 0.96,-1.2 0.72,-1.44 0.72,-1.2 0.96,-1.44 0.72,-1.2 0.72,-1.44 0.96,-1.2 0.72,-1.44 0.96,-1.2 0.72,-1.44 0.72,-1.2 0.96,-1.44 0.72,-1.2 0.72,-1.2 0.96,-1.44 0.72,-1.2 0.72,-1.44 0.96,-1.2 0.72,-1.2 0.72,-1.2 0.96,-1.2 0.72,-1.44 0.96,-1.2 0.72,-1.2 0.72,-0.96 0.96,-1.2 0.72,-1.2 0.72,-1.2 0.96,-0.96 0.72,-1.2 0.72,-0.96 0.96,-0.96 0.72,-1.2 0.72,-0.96 0.96,-0.96 0.72,-0.72 0.96,-0.96 0.72,-0.72 0.72,-0.96 0.96,-0.72 0.72,-0.72 0.72,-0.72 0.96,-0.72 0.72,-0.48 0.72,-0.72 0.96,-0.48 0.72,-0.48 0.96,-0.48 0.72,-0.48 0.72,-0.24 0.96,-0.48 0.72,-0.24 0.72,-0.24 0.96,-0.24 0.72,-0.24 h 0.72 l 0.96,-0.24 h 0.72 l 0.72,-0.24 h 0.96 0.72 0.96 0.72 0.72 l 0.96,0.24 h 0.72 l 0.72,0.24 h 0.96 l 0.72,0.24 h 0.72 l 0.96,0.24 0.72,0.24 0.72,0.24 0.96,0.24 h 0.72 l 0.96,0.24 0.72,0.24 0.72,0.24 0.96,0.24 0.72,0.48 0.72,0.24 0.96,0.24 0.72,0.24 0.72,0.24 0.96,0.24 0.72,0.24 0.96,0.48 0.72,0.24 0.72,0.24 0.96,0.24 0.72,0.48 0.72,0.24 0.96,0.24 0.72,0.24 0.72,0.48 0.96,0.24 0.72,0.24 0.72,0.48 0.96,0.24 0.72,0.24 0.96,0.48 0.72,0.24 0.72,0.24 0.96,0.48 0.72,0.24 0.72,0.24 0.96,0.48 0.72,0.24 0.72,0.24 0.96,0.48 0.72,0.24 0.72,0.24 0.96,0.48 0.72,0.24 0.96,0.48 0.72,0.24 0.72,0.24 0.96,0.48 0.72,0.24 0.72,0.24 0.96,0.48 0.72,0.24 0.72,0.24 0.96,0.48 0.72,0.24 0.96,0.48 0.72,0.24 0.72,0.24 0.96,0.48 0.72,0.24 0.72,0.24 0.96,0.48 0.72,0.24 0.72,0.24 0.96,0.48 0.72,0.24 0.72,0.48 0.96,0.24 0.72,0.24 0.96,0.48 0.72,0.24 0.72,0.48 0.96,0.24 0.72,0.24 0.72,0.48 0.96,0.24 0.72,0.24 0.72,0.48 0.96,0.24 0.72,0.48 0.72,0.24 0.96,0.24 0.72,0.48 0.96,0.24 0.72,0.24 0.72,0.48 0.96,0.24 0.72,0.48 0.72,0.24 0.96,0.24 0.72,0.48 0.72,0.24 0.96,0.24 0.72,0.48 0.96,0.24 0.72,0.48 0.72,0.24 0.96,0.24 0.72,0.48 0.72,0.24 0.96,0.24 0.72,0.48 0.72,0.24 0.96,0.48 0.72,0.24 0.72,0.24 0.96,0.48 0.72,0.24 0.96,0.24 0.72,0.48 0.72,0.24 0.96,0.48 0.72,0.24 0.72,0.24 0.96,0.48 0.72,0.24 0.72,0.24 0.96,0.48 0.72,0.24 0.96,0.48 0.72,0.24 0.72,0.24 0.96,0.48 0.72,0.24 0.72,0.24 0.96,0.48 0.72,0.24 0.72,0.48 0.96,0.24 0.72,0.24 0.72,0.48 0.96,0.24 0.72,0.24 0.72,0.48 0.96,0.24 0.72,0.48 0.96,0.24 0.72,0.24 0.72,0.48 0.96,0.24 0.72,0.24 0.72,0.48"
       style="fill:none;stroke:#69d025;stroke-width:0.833333;stroke-linecap:butt;stroke-linejoin:round;stroke-miterlimit:10;stroke-dasharray:7.68, 5.76;stroke-dashoffset:0;stroke-opacity:1"
       id="path968" /><path
       d="m 105.44,63.6 0.24,0.48 0.96,2.16 0.72,1.92 0.72,1.92 0.96,1.92"
       style="fill:none;stroke:#aacc22;stroke-width:0.833333;stroke-linecap:butt;stroke-linejoin:round;stroke-miterlimit:10;stroke-dasharray:7.68, 5.76;stroke-dashoffset:0;stroke-opacity:1"
       id="path972" /><path
       d="m 109.04,72 0.72,1.92 0.96,1.92 0.72,1.92 0.72,1.68 0.96,1.92 0.72,1.68 0.72,1.68 0.96,1.92 0.72,1.44 0.72,1.68 0.96,2.16 0.72,1.68 0.96,1.92 0.72,2.4 0.72,2.16 0.96,2.16 0.72,2.16 0.72,2.16 0.96,2.16 0.72,2.16 0.72,2.16 0.96,1.92 0.72,1.92 0.72,1.44 0.96,1.68 0.72,1.68 0.96,1.2 0.72,0.96 0.72,1.2 0.96,1.2 0.72,0.96 0.72,0.96 0.96,0.96 0.72,0.96 0.72,0.72 0.96,1.2 0.72,0.96 0.72,0.96 0.96,0.72 0.72,0.96 0.96,0.96 0.72,0.72 0.72,0.96 0.96,0.72 0.72,0.96 0.72,0.72 0.96,0.96 0.72,0.72 0.72,0.96 0.96,0.96 0.72,0.72 0.72,0.72 0.96,0.96 0.72,1.2 0.96,1.2 0.72,1.2 0.72,0.96 0.96,0.96 0.72,0.96 0.72,0.72 0.96,0.72 0.72,0.96 0.72,0.96 0.96,0.96 0.72,0.96 0.96,0.72 0.72,0.48 0.72,0.24 0.96,0.24 0.72,0.48 0.72,0.48 0.96,0.72 0.72,0.48 0.72,0.48 0.96,0.24 0.72,0.48 0.96,0.24 0.72,0.48 0.72,0.24 0.96,0.24 0.72,0.48 0.72,0.24 0.96,0.48 0.72,0.24 0.72,0.24 0.96,0.24 0.72,0.24 h 0.72 0.96 l 0.72,0.24 h 0.72 0.96 0.72 0.96 l 0.72,0.24 h 0.72 l 0.96,0.24 0.72,0.24 0.72,0.24 0.96,0.24 0.72,0.24 0.72,0.48 0.96,0.96 0.72,1.92 0.96,5.04 0.72,1.92 0.72,1.2 0.96,0.72 0.72,0.48 0.72,0.48 0.96,0.48 0.72,0.48 0.72,0.72 0.96,0.48 0.72,0.48 h 0.96 l 0.72,-0.96 0.72,-3.6 0.96,-0.48 0.72,0.24 0.72,0.96 0.96,0.96 0.72,1.2 0.72,1.68 0.96,1.92 0.72,1.92 0.72,1.92 0.96,2.64 0.72,2.4 0.72,2.64 0.96,3.12 0.72,4.56 0.96,4.08 0.72,3.12 0.72,3.12 0.96,2.88 0.72,2.4 0.72,2.4 0.96,2.88 0.72,3.36 0.72,3.36 0.96,3.36 0.72,2.88 0.96,1.68 h 0.72 l 0.72,0.24 0.96,1.44 0.72,0.48 0.72,0.24 0.96,0.24 h 0.72 l 0.72,-0.48 0.96,-0.96 0.72,-1.68 0.96,-1.44 0.72,-1.2 h 0.72 l 0.96,1.44 0.72,0.72 0.72,0.24 0.96,1.2 0.72,1.44 0.72,1.68 0.96,1.44 0.72,1.2 0.72,1.2 0.96,0.96 0.72,0.72 0.96,0.72 0.72,0.24 0.72,-0.72 0.96,-0.48 0.72,0.48 0.72,0.24 0.96,0.48 0.72,0.24 0.72,0.72 0.96,0.72 0.72,0.96 0.72,0.96 0.96,1.2 0.72,0.96 0.96,1.2 0.72,1.2 0.72,0.96 0.96,1.2 0.72,0.72 0.72,0.96 0.96,0.72 0.72,0.72 0.72,0.96 0.96,0.96 0.72,0.96 0.96,0.96 0.72,0.96 0.72,1.2 0.96,1.2 0.72,1.2 0.72,1.2 0.96,1.44 0.72,1.2 0.72,1.44 0.96,1.44 0.72,1.2 0.72,1.44 0.96,1.2 0.72,1.44 0.96,1.2 0.72,0.96 0.72,1.2 0.96,0.96 0.72,0.72 0.72,0.96 0.96,0.72 0.72,0.72 0.72,0.48 0.96,0.48 0.72,0.48 0.72,0.48 0.96,0.48 0.72,0.48 0.96,0.24 0.72,0.48 0.72,0.24 0.96,0.48 0.72,0.24 0.72,0.24 0.96,0.48 0.72,0.24 0.72,0.48 0.96,0.24 0.72,0.24 0.96,0.48 0.72,0.24 0.72,0.24 0.96,0.48 0.72,0.24 0.72,0.24 0.96,0.24 0.72,0.24 h 0.72 l 0.96,0.24 0.72,0.24 h 0.72 l 0.96,0.24 h 0.72 0.96 0.72 0.72 0.96 0.72 l 0.72,-0.24 h 0.96 l 0.72,-0.24 0.72,-0.24 h 0.96 l 0.72,-0.24 0.72,-0.24 0.96,-0.48 0.72,-0.24 0.96,-0.24 0.72,-0.24 0.72,-0.48 0.96,-0.48 0.72,-0.24 0.72,-0.48 0.96,-0.24 0.72,-0.48 0.72,-0.48 0.96,-0.48 0.72,-0.48 0.72,-0.72 0.96,-0.48 0.72,-0.72 0.96,-0.72 0.72,-0.72 0.72,-0.72 0.96,-0.96 0.72,-0.72 0.72,-0.96 0.96,-0.72 0.72,-0.96 0.72,-0.96 0.96,-0.96 0.72,-0.96 0.96,-0.96 0.72,-0.96 0.72,-0.96 0.96,-0.96 0.72,-1.2 0.72,-0.96 0.96,-0.96 0.72,-1.2 0.72,-0.96 0.96,-1.2 0.72,-0.96 0.96,-1.2 0.72,-1.2 0.72,-1.2 0.96,-1.2"
       style="fill:none;stroke:#aacc22;stroke-width:0.833333;stroke-linecap:butt;stroke-linejoin:round;stroke-miterlimit:10;stroke-dasharray:7.68, 5.76;stroke-dashoffset:0;stroke-opacity:1"
       id="path974" /><path
       d="m 350.96,268.32 0.72,-1.2 0.72,-1.2 0.96,-1.2 0.72,-1.44 0.72,-1.2 0.96,-1.2 0.72,-1.44 0.72,-1.2 0.96,-1.2 0.72,-1.44 0.72,-1.2 0.96,-1.44 0.72,-1.2 0.96,-1.44 0.72,-1.2 0.72,-1.44 0.96,-1.44 0.72,-1.2 0.72,-1.44 0.96,-1.2 0.72,-1.44 0.72,-1.2 0.96,-1.44 0.72,-1.44 0.96,-1.2 0.72,-1.44 0.72,-1.44 0.96,-1.2 0.72,-1.44 0.72,-1.2 0.96,-1.44 0.72,-1.44 0.72,-1.2 0.96,-1.44 0.72,-1.44 0.96,-1.2 0.72,-1.44 0.72,-1.2 0.96,-1.44 0.72,-1.44 0.72,-1.2 0.96,-1.44 0.72,-1.2 0.72,-1.44 0.96,-1.2 0.72,-1.44 0.72,-1.2 0.96,-1.44 0.72,-1.2 0.72,-1.44 0.96,-1.2 0.72,-1.44 0.96,-1.2 0.72,-1.2 0.72,-1.44 0.96,-1.2 0.72,-1.2 0.72,-1.44 0.96,-1.2 0.72,-1.2 0.72,-1.2 0.96,-1.2 0.72,-1.2 0.96,-1.2 0.72,-1.2 0.72,-1.2 0.96,-1.2 0.72,-1.2 0.72,-0.96 0.96,-1.2 0.72,-0.96 0.72,-0.96 0.96,-1.2 0.72,-0.96 0.96,-0.96 0.72,-0.72 0.72,-0.96 0.96,-0.72 0.72,-0.96 0.72,-0.72 0.96,-0.72 0.72,-0.72 0.72,-0.72 0.96,-0.48 0.72,-0.72 0.72,-0.48 0.96,-0.48 0.72,-0.48 0.96,-0.48 0.72,-0.24 0.72,-0.48 0.96,-0.24 0.72,-0.24 0.72,-0.24 0.96,-0.24 h 0.72 l 0.72,-0.24 h 0.96 l 0.72,-0.24 h 0.72 0.96 0.72 0.96 l 0.72,0.24 h 0.72 0.96 l 0.72,0.24 h 0.72 l 0.96,0.24 0.72,0.24 h 0.72 l 0.96,0.24 0.72,0.24 0.96,0.24 0.72,0.24 0.72,0.24 h 0.96 l 0.72,0.48 0.72,0.24 0.96,0.24 0.72,0.24 0.72,0.24 0.96,0.24 0.72,0.24 0.72,0.24 0.96,0.48 0.72,0.24 0.96,0.24 0.72,0.24 0.72,0.48 0.96,0.24 0.72,0.24 0.72,0.24 0.96,0.48 0.72,0.24 0.72,0.24 0.96,0.48 0.72,0.24 0.72,0.24 0.96,0.48 0.72,0.24 0.96,0.24 0.72,0.48 0.72,0.24 0.96,0.24 0.72,0.48 0.72,0.24 0.96,0.24 0.72,0.48 0.72,0.24 0.96,0.24 0.72,0.48 0.72,0.24 0.96,0.24 0.72,0.48 0.96,0.24 0.72,0.24 0.72,0.48 0.96,0.24 0.72,0.48 0.72,0.24 0.96,0.24 0.72,0.48 0.72,0.24 0.96,0.24 0.72,0.48 0.96,0.24 0.72,0.48 0.72,0.24 0.96,0.24 0.72,0.48 0.72,0.24 0.96,0.24 0.72,0.48 0.72,0.24 0.96,0.48 0.72,0.24 0.72,0.24 0.96,0.48 0.72,0.24 0.96,0.24 0.72,0.48 0.72,0.24 0.96,0.48 0.72,0.24 0.72,0.24 0.96,0.48 0.72,0.24 0.72,0.24 0.96,0.48 0.72,0.24 0.72,0.48 0.96,0.24 0.72,0.24 0.96,0.48 0.72,0.24 0.72,0.24 0.96,0.48 0.72,0.24 0.72,0.48 0.96,0.24 0.72,0.24 0.72,0.48 0.96,0.24 0.72,0.24 0.96,0.48 0.72,0.24 0.72,0.48 0.96,0.24 0.72,0.24 0.72,0.48 0.96,0.24 0.72,0.24 0.72,0.48 0.96,0.24 0.72,0.48 0.96,0.24 0.72,0.24 0.72,0.48 0.96,0.24 0.72,0.24 0.72,0.48 0.96,0.24 0.72,0.48 0.72,0.24 0.96,0.24 0.72,0.48 0.72,0.24 0.96,0.24 0.72,0.48 0.72,0.24 0.96,0.48 0.72,0.24 0.96,0.24 0.72,0.48 0.72,0.24 0.96,0.24 0.72,0.48 0.72,0.24 0.96,0.48 0.72,0.24 0.72,0.24 0.96,0.48 0.72,0.24 0.96,0.24 0.72,0.48 0.72,0.24 0.96,0.48 0.72,0.24 h 0.24"
       style="fill:none;stroke:#aacc22;stroke-width:0.833333;stroke-linecap:butt;stroke-linejoin:round;stroke-miterlimit:10;stroke-dasharray:7.68, 5.76;stroke-dashoffset:0;stroke-opacity:1"
       id="path976" /><path
       d="m 109.04,63.6 v 0.24 l 0.96,1.92 0.72,2.16 0.72,1.92 0.96,1.92 0.72,1.92 0.72,1.68 0.96,1.92 0.72,1.92 0.96,1.92 0.72,1.68 0.72,1.68 0.96,1.68 0.72,1.68 0.72,1.68 0.96,2.16 0.72,1.68 0.72,1.92 0.96,2.16 0.72,2.4 0.72,2.16 0.96,2.16 0.72,2.16 0.96,2.16 0.72,2.16 0.72,1.92 0.96,2.16 0.72,1.92 0.72,1.44 0.96,1.68 0.72,1.68 0.72,0.96 0.96,1.2 0.72,1.2 0.96,0.96 0.72,1.2 0.72,0.96 0.96,0.72 0.72,0.96 0.72,0.96 0.96,0.96 0.72,1.2 0.72,0.72 0.96,0.96 0.72,0.96 0.72,0.96 0.96,0.72 0.72,0.96 0.96,0.72 0.72,0.96 0.72,0.72 0.96,0.96 0.72,0.72 0.72,0.96 0.96,0.72 0.72,0.72 0.72,0.96 0.96,0.96 0.72,0.96 0.72,1.44 0.96,1.2 0.72,0.96 0.96,0.96 0.72,0.96 0.72,0.96 0.96,0.72 0.72,0.96 0.72,0.96 0.96,1.2 0.72,0.96 0.72,0.48 0.96,0.72 h 0.72 l 0.96,0.48 0.72,0.48 0.72,0.48 0.96,0.48 0.72,0.48 0.72,0.48 0.96,0.48 0.72,0.24 0.72,0.48 0.96,0.24 0.72,0.48 0.72,0.24 0.96,0.24 0.72,0.48 0.96,0.24 0.72,0.24 0.72,0.24 0.96,0.48 h 0.72 l 0.72,0.24 h 0.96 l 0.72,0.24 h 0.72 0.96 0.72 0.72 l 0.96,0.24 0.72,0.24 0.96,0.24 0.72,0.24 0.72,0.24 0.96,0.24 0.72,0.24 0.72,0.72 0.96,0.96 0.72,2.16 0.72,5.04 0.96,1.92 0.72,0.96 0.96,0.96 0.72,0.48 0.72,0.48 0.96,0.72 0.72,0.48 0.72,0.48 0.96,0.48 0.72,0.48 0.72,0.24 0.96,-0.96 0.72,-3.84 0.72,-0.48 0.96,0.48 0.72,0.72 0.96,1.2 0.72,1.2 0.72,1.68 0.96,2.16 0.72,1.92 0.72,1.92 0.96,2.4 0.72,2.64 0.72,2.64 0.96,3.12 0.72,4.56 0.72,4.08 0.96,3.12 0.72,2.88 0.96,2.88 0.72,2.64 0.72,2.4 0.96,2.64 0.72,3.36 0.72,3.6 0.96,3.12 0.72,3.12 0.72,1.68 h 0.96 l 0.72,0.24 0.96,1.2 0.72,0.72 0.72,0.24 0.96,0.24 h 0.72 l 0.72,-0.48 0.96,-0.96 0.72,-1.68 0.72,-1.44 0.96,-1.2 h 0.72 l 0.96,1.44 0.72,0.72 0.72,0.24 0.96,1.2 0.72,1.44 0.72,1.68 0.96,1.44 0.72,1.2 0.72,1.2 0.96,0.96 0.72,0.72 0.72,0.72 0.96,0.24 0.72,-0.72 0.72,-0.48 0.96,0.24 0.72,0.24 0.96,0.72 0.72,0.24 0.72,0.72 0.96,0.72 0.72,0.96 0.72,0.96 0.96,0.96 0.72,1.2 0.72,1.2 0.96,1.2 0.72,0.96 0.96,0.96 0.72,0.96 0.72,0.96 0.96,0.72 0.72,0.72 0.72,0.96 0.96,0.96 0.72,0.96 0.72,0.96 0.96,0.96 0.72,1.2 0.96,1.2 0.72,1.2 0.72,1.2 0.96,1.44 0.72,1.2 0.72,1.44 0.96,1.44 0.72,1.2 0.72,1.44 0.96,1.2 0.72,1.44 0.72,1.2 0.96,0.96 0.72,1.2 0.72,0.96 0.96,0.72 0.72,0.96 0.96,0.72 0.72,0.72 0.72,0.48 0.96,0.48 0.72,0.48 0.72,0.48 0.96,0.48 0.72,0.24 0.72,0.48 0.96,0.48 0.72,0.24 0.96,0.24 0.72,0.48 0.72,0.24 0.96,0.48 0.72,0.24 0.72,0.48 0.96,0.24 0.72,0.24 0.72,0.48 0.96,0.24 0.72,0.24 0.72,0.24 0.96,0.48 0.72,0.24 0.96,0.24 h 0.72 l 0.72,0.24 0.96,0.24 0.72,0.24 h 0.72 0.96 l 0.72,0.24 h 0.72 0.96 0.72 0.96 0.72 l 0.72,-0.24 h 0.96 l 0.72,-0.24 0.72,-0.24 h 0.96 l 0.72,-0.24 0.72,-0.24 0.96,-0.48 0.72,-0.24 0.72,-0.24 0.96,-0.48 0.72,-0.24 0.96,-0.48 0.72,-0.24 0.72,-0.48 0.96,-0.48 0.72,-0.24 0.72,-0.48 0.96,-0.48 0.72,-0.72 0.72,-0.48 0.96,-0.72 0.72,-0.48 0.72,-0.72 0.96,-0.72 0.72,-0.72 0.96,-0.96 0.72,-0.72 0.72,-0.96 0.96,-0.96 0.72,-0.72 0.72,-0.96 0.96,-0.96 0.72,-0.96 0.72,-0.96 0.96,-0.96 0.72,-0.96 0.96,-0.96 0.72,-1.2 0.72,-0.96 0.96,-0.96"
       style="fill:none;stroke:#d0c310;stroke-width:0.833333;stroke-linecap:butt;stroke-linejoin:round;stroke-miterlimit:10;stroke-dasharray:7.68, 5.76;stroke-dashoffset:0;stroke-opacity:1"
       id="path982" /><path
       d="m 347.84,278.88 0.72,-1.2 0.72,-0.96 0.96,-1.2 0.72,-0.96 0.72,-1.2 0.96,-1.2 0.72,-1.2 0.72,-1.2 0.96,-1.2 0.72,-1.2 0.96,-1.2 0.72,-1.44 0.72,-1.2 0.96,-1.2 0.72,-1.44 0.72,-1.2 0.96,-1.44 0.72,-1.2 0.72,-1.2 0.96,-1.44 0.72,-1.2 0.72,-1.44 0.96,-1.2 0.72,-1.44 0.96,-1.44 0.72,-1.2 0.72,-1.44 0.96,-1.2 0.72,-1.44 0.72,-1.44 0.96,-1.2 0.72,-1.44 0.72,-1.2 0.96,-1.44 0.72,-1.44 0.96,-1.2 0.72,-1.44 0.72,-1.44 0.96,-1.2 0.72,-1.44 0.72,-1.2 0.96,-1.44 0.72,-1.44 0.72,-1.2 0.96,-1.44 0.72,-1.2 0.72,-1.44 0.96,-1.44 0.72,-1.2 0.96,-1.44 0.72,-1.2 0.72,-1.44 0.96,-1.2 0.72,-1.44 0.72,-1.2 0.96,-1.44 0.72,-1.2 0.72,-1.44 0.96,-1.2 0.72,-1.2 0.72,-1.44 0.96,-1.2 0.72,-1.44 0.96,-1.2 0.72,-1.2 0.72,-1.2 0.96,-1.44 0.72,-1.2 0.72,-1.2 0.96,-1.2 0.72,-1.2 0.72,-1.2 0.96,-1.2 0.72,-1.2 0.96,-0.96 0.72,-1.2 0.72,-1.2 0.96,-0.96 0.72,-0.96 0.72,-1.2 0.96,-0.96 0.72,-0.96 0.72,-0.96 0.96,-0.72 0.72,-0.96 0.96,-0.72 0.72,-0.96 0.72,-0.72 0.96,-0.72 0.72,-0.48 0.72,-0.72 0.96,-0.72 0.72,-0.48 0.72,-0.48 0.96,-0.48 0.72,-0.48 0.72,-0.24 0.96,-0.48 0.72,-0.24 0.72,-0.24 0.96,-0.48 h 0.72 l 0.96,-0.24 0.72,-0.24 h 0.72 l 0.96,-0.24 h 0.72 0.72 0.96 0.72 0.72 l 0.96,0.24 h 0.72 0.96 l 0.72,0.24 0.72,0.24 h 0.96 l 0.72,0.24 0.72,0.24 h 0.96 l 0.72,0.24 0.72,0.24 0.96,0.24 0.72,0.24 0.96,0.24 0.72,0.24 0.72,0.24 0.96,0.24 0.72,0.24 0.72,0.24 0.96,0.48 0.72,0.24 0.72,0.24 0.96,0.24 0.72,0.24 0.72,0.48 0.96,0.24 0.72,0.24 0.72,0.24 0.96,0.48 0.72,0.24 0.96,0.24 0.72,0.48 0.72,0.24 0.96,0.24 0.72,0.48 0.72,0.24 0.96,0.24 0.72,0.48 0.72,0.24 0.96,0.24 0.72,0.48 0.96,0.24 0.72,0.24 0.72,0.48 0.96,0.24 0.72,0.24 0.72,0.48 0.96,0.24 0.72,0.24 0.72,0.48 0.96,0.24 0.72,0.24 0.72,0.48 0.96,0.24 0.72,0.48 0.96,0.24 0.72,0.24 0.72,0.48 0.96,0.24 0.72,0.24 0.72,0.48 0.96,0.24 0.72,0.48 0.72,0.24 0.96,0.24 0.72,0.48 0.96,0.24 0.72,0.24 0.72,0.48 0.96,0.24 0.72,0.24 0.72,0.48 0.96,0.24 0.72,0.48 0.72,0.24 0.96,0.24 0.72,0.48 0.72,0.24 0.96,0.24 0.72,0.48 0.96,0.24 0.72,0.48 0.72,0.24 0.96,0.24 0.72,0.48 0.72,0.24 0.96,0.24 0.72,0.48 0.72,0.24 0.96,0.48 0.72,0.24 0.72,0.24 0.96,0.48 0.72,0.24 0.96,0.24 0.72,0.48 0.72,0.24 0.96,0.48 0.72,0.24 0.72,0.24 0.96,0.48 0.72,0.24 0.72,0.48 0.96,0.24 0.72,0.24 0.96,0.48 0.72,0.24 0.72,0.24 0.96,0.48 0.72,0.24 0.72,0.48 0.96,0.24 0.72,0.24 0.72,0.48 0.96,0.24 0.72,0.24 0.72,0.48 0.96,0.24 0.72,0.48 0.96,0.24 0.72,0.24 0.72,0.48 0.96,0.24 0.72,0.24 0.72,0.48 0.96,0.24 0.72,0.48 0.72,0.24 0.96,0.24 0.72,0.48 0.72,0.24 0.96,0.24 0.72,0.48 0.96,0.24 0.72,0.48 0.72,0.24 0.96,0.24 0.72,0.48 0.72,0.24 0.96,0.24 0.72,0.48 0.72,0.24 h 0.24"
       style="fill:none;stroke:#d0c310;stroke-width:0.833333;stroke-linecap:butt;stroke-linejoin:round;stroke-miterlimit:10;stroke-dasharray:7.68, 5.76;stroke-dashoffset:0;stroke-opacity:1"
       id="path984" /><path
       d="m 112.16,63.6 v 0 l 0.72,2.16 0.96,1.92 0.72,1.92 0.72,1.92 0.96,1.92 0.72,1.92 0.96,1.92 0.72,1.68 0.72,1.92 0.96,1.68 0.72,1.68 0.72,1.68 0.96,1.68 0.72,1.68 0.72,2.16 0.96,1.68 0.72,1.92 0.72,2.4 0.96,2.16 0.72,2.16 0.96,2.16 0.72,2.16 0.72,2.16 0.96,2.16 0.72,2.16 0.72,1.92 0.96,1.92 0.72,1.44 0.72,1.68 0.96,1.68 0.72,1.2 0.96,0.96 0.72,1.2 0.72,0.96 0.96,1.2 0.72,0.96 0.72,0.96 0.96,0.96 0.72,0.72 0.72,1.2 0.96,0.96 0.72,0.72 0.72,0.96 0.96,0.96 0.72,0.96 0.72,0.72 0.96,0.96 0.72,0.72 0.96,0.96 0.72,0.72 0.72,0.96 0.96,0.72 0.72,0.96 0.72,0.96 0.96,0.72 0.72,0.72 0.72,0.96 0.96,1.2 0.72,1.2 0.96,1.44 0.72,0.96 0.72,0.96 0.96,0.96 0.72,0.96 0.72,0.72 0.96,0.96 0.72,1.2 0.72,0.96 0.96,0.96 0.72,0.72 0.96,0.48 0.72,0.24 0.72,0.24 0.96,0.72 0.72,0.48 0.72,0.48 0.96,0.48 0.72,0.48 0.72,0.48 0.96,0.24 0.72,0.24 0.72,0.48 0.96,0.24 0.72,0.48 0.72,0.24 0.96,0.24 0.72,0.48 0.96,0.24 0.72,0.24 0.72,0.24 0.96,0.24 0.72,0.24 h 0.72 l 0.96,0.24 h 0.72 l 0.72,0.24 h 0.96 0.72 l 0.96,0.24 0.72,0.24 0.72,0.24 0.96,0.24 0.72,0.24 0.72,0.24 0.96,0.48 0.72,0.48 0.72,1.2 0.96,2.16 0.72,5.04 0.96,2.16 0.72,0.96 0.72,0.96 0.96,0.48 0.72,0.72 0.72,0.48 0.96,0.48 0.72,0.72 0.72,0.48 0.96,0.48 0.72,0.24 0.72,-1.2 0.96,-3.6 0.72,-0.48 0.96,0.48 0.72,0.72 0.72,1.2 0.96,1.2 0.72,1.68 0.72,2.16 0.96,1.92 0.72,1.92 0.72,2.4 0.96,2.64 0.72,2.64 0.72,3.12 0.96,4.56 0.72,4.08 0.96,3.12 0.72,3.12 0.72,2.88 0.96,2.64 0.72,2.16 0.72,2.88 0.96,3.36 0.72,3.6 0.72,3.12 0.96,2.88 0.72,1.92 0.96,-0.24 0.72,0.48 0.72,1.2 0.96,0.72 0.72,0.24 0.72,0.24 h 0.96 l 0.72,-0.48 0.72,-0.96 0.96,-1.68 0.72,-1.68 0.72,-0.96 0.96,-0.24 0.72,1.68 0.96,0.48 0.72,0.48 0.72,1.2 0.96,1.44 0.72,1.68 0.72,1.44 0.96,0.96 0.72,1.2 0.72,0.96 0.96,0.96 0.72,0.72 0.72,0.24 0.96,-0.96 0.72,-0.24 0.96,0.24 0.72,0.24 0.72,0.48 0.96,0.24 0.72,0.72 0.72,0.96 0.96,0.72 0.72,1.2 0.72,0.96 0.96,1.2 0.72,1.2 0.96,0.96 0.72,1.2 0.72,0.96 0.96,0.96 0.72,0.72 0.72,0.72 0.96,0.96 0.72,0.72 0.72,0.96 0.96,0.96 0.72,0.96 0.72,1.2 0.96,1.2 0.72,1.2 0.96,1.2 0.72,1.2 0.72,1.2 0.96,1.44 0.72,1.44 0.72,1.2 0.96,1.44 0.72,1.44 0.72,1.2 0.96,1.2 0.72,1.2 0.72,1.2 0.96,0.96 0.72,0.96 0.96,0.96 0.72,0.72 0.72,0.72 0.96,0.72 0.72,0.72 0.72,0.48 0.96,0.48 0.72,0.48 0.72,0.24 0.96,0.48 0.72,0.48 0.72,0.24 0.96,0.48 0.72,0.24 0.96,0.48 0.72,0.24 0.72,0.24 0.96,0.48 0.72,0.24 0.72,0.48 0.96,0.24 0.72,0.24 0.72,0.48 0.96,0.24 0.72,0.24 0.96,0.24 0.72,0.24 0.72,0.24 0.96,0.24 0.72,0.24 0.72,0.24 h 0.96 l 0.72,0.24 h 0.72 0.96 l 0.72,0.24 h 0.96 0.72 0.72 l 0.96,-0.24 h 0.72 l 0.72,-0.24 h 0.96 l 0.72,-0.24 0.72,-0.24 0.96,-0.24 0.72,-0.24 0.72,-0.24 0.96,-0.24 0.72,-0.48 0.72,-0.24 0.96,-0.24 0.72,-0.48 0.96,-0.48 0.72,-0.24 0.72,-0.48 0.96,-0.48 0.72,-0.48 0.72,-0.48 0.96,-0.48 0.72,-0.48 0.72,-0.72 0.96,-0.72 0.72,-0.48 0.96,-0.72 0.72,-0.96 0.72,-0.72 0.96,-0.72 0.72,-0.96 0.72,-0.96 0.96,-0.96 0.72,-0.96 0.72,-0.72 0.96,-0.96 0.72,-0.96 0.96,-0.96 0.72,-1.2 0.72,-0.96 0.96,-0.96 0.72,-0.96 0.72,-1.2 0.96,-0.96"
       style="fill:none;stroke:#ccbb33;stroke-width:0.833333;stroke-linecap:butt;stroke-linejoin:round;stroke-miterlimit:10;stroke-dasharray:7.68, 5.76;stroke-dashoffset:0;stroke-opacity:1"
       id="path990" /><path
       d="m 351.68,279.12 0.72,-0.96 0.72,-1.2 0.96,-1.2 0.72,-0.96 0.72,-1.2 0.96,-1.2 0.72,-1.2 0.72,-1.2 0.96,-1.2 0.72,-1.44 0.96,-1.2 0.72,-1.2 0.72,-1.44 0.96,-1.2 0.72,-1.2 0.72,-1.44 0.96,-1.2 0.72,-1.44 0.72,-1.2 0.96,-1.44 0.72,-1.2 0.96,-1.44 0.72,-1.2 0.72,-1.44 0.96,-1.44 0.72,-1.2 0.72,-1.44 0.96,-1.2 0.72,-1.44 0.72,-1.44 0.96,-1.2 0.72,-1.44 0.96,-1.2 0.72,-1.44 0.72,-1.44 0.96,-1.2 0.72,-1.44 0.72,-1.2 0.96,-1.44 0.72,-1.44 0.72,-1.2 0.96,-1.44 0.72,-1.44 0.72,-1.2 0.96,-1.44 0.72,-1.2 0.96,-1.44 0.72,-1.2 0.72,-1.44 0.96,-1.2 0.72,-1.44 0.72,-1.2 0.96,-1.44 0.72,-1.44 0.72,-1.2 0.96,-1.2 0.72,-1.44 0.72,-1.2 0.96,-1.44 0.72,-1.2 0.96,-1.2 0.72,-1.44 0.72,-1.2 0.96,-1.2 0.72,-1.44 0.72,-1.2 0.96,-1.2 0.72,-1.2 0.72,-1.2 0.96,-1.2 0.72,-1.2 0.96,-1.2 0.72,-1.2 0.72,-0.96 0.96,-1.2 0.72,-0.96 0.72,-1.2 0.96,-0.96 0.72,-0.96 0.72,-0.96 0.96,-0.96 0.72,-0.96 0.72,-0.96 0.96,-0.72 0.72,-0.72 0.96,-0.96 0.72,-0.72 0.72,-0.72 0.96,-0.48 0.72,-0.72 0.72,-0.48 0.96,-0.72 0.72,-0.48 0.72,-0.48 0.96,-0.24 0.72,-0.48 0.72,-0.24 0.96,-0.24 0.72,-0.48 0.96,-0.24 h 0.72 l 0.72,-0.24 0.96,-0.24 h 0.72 0.72 0.96 0.72 0.72 0.96 0.72 0.96 l 0.72,0.24 h 0.72 l 0.96,0.24 h 0.72 l 0.72,0.24 0.96,0.24 h 0.72 l 0.72,0.24 0.96,0.24 0.72,0.24 0.72,0.24 0.96,0.24 0.72,0.24 0.96,0.24 0.72,0.24 0.72,0.24 0.96,0.24 0.72,0.24 0.72,0.48 0.96,0.24 0.72,0.24 0.72,0.24 0.96,0.24 0.72,0.48 0.72,0.24 0.96,0.24 0.72,0.24 0.96,0.48 0.72,0.24 0.72,0.24 0.96,0.48 0.72,0.24 0.72,0.24 0.96,0.48 0.72,0.24 0.72,0.24 0.96,0.48 0.72,0.24 0.72,0.24 0.96,0.48 0.72,0.24 0.96,0.24 0.72,0.48 0.72,0.24 0.96,0.24 0.72,0.48 0.72,0.24 0.96,0.24 0.72,0.48 0.72,0.24 0.96,0.48 0.72,0.24 0.96,0.24 0.72,0.48 0.72,0.24 0.96,0.24 0.72,0.48 0.72,0.24 0.96,0.24 0.72,0.48 0.72,0.24 0.96,0.48 0.72,0.24 0.96,0.24 0.72,0.48 0.72,0.24 0.96,0.24 0.72,0.48 0.72,0.24 0.96,0.48 0.72,0.24 0.72,0.24 0.96,0.48 0.72,0.24 0.72,0.24 0.96,0.48 0.72,0.24 0.72,0.48 0.96,0.24 0.72,0.24 0.96,0.48 0.72,0.24 0.72,0.24 0.96,0.48 0.72,0.24 0.72,0.48 0.96,0.24 0.72,0.24 0.72,0.48 0.96,0.24 0.72,0.24 0.96,0.48 0.72,0.24 0.72,0.48 0.96,0.24 0.72,0.24 0.72,0.48 0.96,0.24 0.72,0.24 0.72,0.48 0.96,0.24 0.72,0.48 0.96,0.24 0.72,0.24 0.72,0.48 0.96,0.24 0.72,0.24 0.72,0.48 0.96,0.24 0.72,0.48 0.72,0.24 0.96,0.24 0.72,0.48 0.72,0.24 0.96,0.24 0.72,0.48 0.72,0.24 0.96,0.48 0.72,0.24 0.96,0.24 0.72,0.48 0.72,0.24 0.96,0.48 0.72,0.24 0.72,0.24 0.96,0.48 0.72,0.24 0.72,0.24 0.96,0.48 0.72,0.24 0.96,0.48 0.72,0.24 0.72,0.24 0.96,0.48 0.72,0.24 0.72,0.24 0.96,0.48 h 0.24"
       style="fill:none;stroke:#ccbb33;stroke-width:0.833333;stroke-linecap:butt;stroke-linejoin:round;stroke-miterlimit:10;stroke-dasharray:7.68, 5.76;stroke-dashoffset:0;stroke-opacity:1"
       id="path992" /><path
       d="m 114.8,63.6 0.24,0.24 0.72,1.92 0.72,1.92 0.96,1.92 0.72,1.92 0.72,1.92 0.96,1.92 0.72,1.92 0.96,1.68 0.72,1.92 0.72,1.68 0.96,1.92 0.72,1.68 0.72,1.44 0.96,1.68 0.72,2.16 0.72,1.92 0.96,1.92 0.72,2.16 0.96,2.16 0.72,2.16 0.72,2.16 0.96,2.16 0.72,2.16 0.72,2.16 0.96,2.16 0.72,1.92 0.72,2.16 0.96,1.44 0.72,1.68 0.72,1.44 0.96,1.2 0.72,0.96 0.96,1.2 0.72,1.2 0.72,0.96 0.96,0.96 0.72,0.96 0.72,0.96 0.96,0.96 0.72,0.96 0.72,0.96 0.96,0.96 0.72,0.72 0.72,0.96 0.96,0.96 0.72,0.96 0.96,0.72 0.72,0.96 0.72,0.72 0.96,0.72 0.72,0.96 0.72,0.96 0.96,0.72 0.72,0.96 0.72,0.72 0.96,0.72 0.72,1.2 0.96,0.96 0.72,1.44 0.72,1.2 0.96,1.2 0.72,0.96 0.72,0.96 0.96,0.96 0.72,0.72 0.72,1.2 0.96,0.96 0.72,1.2 0.72,0.96 0.96,0.72 0.72,0.48 0.96,0.24 0.72,0.24 0.72,0.48 0.96,0.48 0.72,0.72 0.72,0.48 0.96,0.48 0.72,0.24 0.72,0.48 0.96,0.24 0.72,0.48 0.72,0.24 0.96,0.24 0.72,0.48 0.96,0.24 0.72,0.48 0.72,0.24 0.96,0.24 0.72,0.24 0.72,0.24 0.96,0.24 0.72,0.24 h 0.72 l 0.96,0.24 h 0.72 0.72 l 0.96,0.24 0.72,0.24 0.96,0.24 0.72,0.24 0.72,0.24 0.96,0.24 0.72,0.48 0.72,0.24 0.96,0.72 0.72,0.96 0.72,2.4 0.96,5.04 0.72,2.16 0.96,1.2 0.72,0.72 0.72,0.72 0.96,0.48 0.72,0.72 0.72,0.48 0.96,0.72 0.72,0.48 0.72,0.48 0.96,0.24 0.72,-0.96 0.96,-3.84 0.72,-0.48 0.72,0.48 0.96,0.72 0.72,1.2 0.72,1.2 0.96,1.68 0.72,2.16 0.72,1.92 0.96,2.16 0.72,2.4 0.72,2.64 0.96,2.64 0.72,3.12 0.72,4.56 0.96,4.08 0.72,3.36 0.96,2.88 0.72,2.88 0.72,2.64 0.96,2.16 0.72,2.88 0.72,3.36 0.96,3.6 0.72,3.12 0.72,3.12 0.96,1.68 0.72,-0.24 0.96,0.48 0.72,1.2 0.72,0.72 0.96,0.24 0.72,0.24 h 0.72 l 0.96,-0.48 0.72,-0.96 0.72,-1.68 0.96,-1.44 0.72,-1.2 h 0.96 l 0.72,1.44 0.72,0.72 0.96,0.24 0.72,1.2 0.72,1.44 0.96,1.68 0.72,1.44 0.72,1.2 0.96,0.96 0.72,0.96 0.72,0.96 0.96,0.72 0.72,0.24 0.72,-0.96 0.96,-0.24 0.72,0.24 0.96,0.24 0.72,0.48 0.72,0.48 0.96,0.48 0.72,0.96 0.72,0.96 0.96,0.96 0.72,0.96 0.72,1.2 0.96,1.2 0.72,0.96 0.96,1.2 0.72,0.96 0.72,0.96 0.96,0.72 0.72,0.96 0.72,0.72 0.96,0.72 0.72,0.96 0.72,0.96 0.96,1.2 0.72,0.96 0.96,1.2 0.72,1.2 0.72,1.2 0.96,1.2 0.72,1.44 0.72,1.2 0.96,1.44 0.72,1.44 0.72,1.2 0.96,1.44 0.72,1.2 0.72,1.2 0.96,1.2 0.72,1.2 0.96,0.96 0.72,0.96 0.72,0.96 0.96,0.96 0.72,0.72 0.72,0.48 0.96,0.72 0.72,0.48 0.72,0.48 0.96,0.48 0.72,0.48 0.72,0.24 0.96,0.48 0.72,0.24 0.96,0.48 0.72,0.24 0.72,0.48 0.96,0.24 0.72,0.48 0.72,0.24 0.96,0.24 0.72,0.48 0.72,0.24 0.96,0.48 0.72,0.24 0.96,0.24 0.72,0.24 0.72,0.24 0.96,0.24 0.72,0.24 0.72,0.24 0.96,0.24 0.72,0.24 H 314 l 0.96,0.24 h 0.72 l 0.72,0.24 h 0.96 0.72 0.96 0.72 l 0.72,-0.24 h 0.96 l 0.72,-0.24 h 0.72 l 0.96,-0.24 0.72,-0.24 0.72,-0.24 0.96,-0.24 0.72,-0.24 0.72,-0.24 0.96,-0.24 0.72,-0.48 0.96,-0.24 0.72,-0.48 0.72,-0.24 0.96,-0.48 0.72,-0.48 0.72,-0.24 0.96,-0.48"
       style="fill:none;stroke:#feae2d;stroke-width:0.833333;stroke-linecap:butt;stroke-linejoin:round;stroke-miterlimit:10;stroke-dasharray:7.68, 5.76;stroke-dashoffset:0;stroke-opacity:1"
       id="path998" /><path
       d="m 335.12,300.96 0.72,-0.48 0.72,-0.72 0.96,-0.48 0.72,-0.72 0.72,-0.48 0.96,-0.72 0.72,-0.72 0.96,-0.72 0.72,-0.96 0.72,-0.72 0.96,-0.96 0.72,-0.96 0.72,-0.96 0.96,-0.72 0.72,-0.96 0.72,-0.96 0.96,-0.96 0.72,-0.96 0.96,-0.96 0.72,-1.2 0.72,-0.96 0.96,-0.96 0.72,-0.96 0.72,-1.2 0.96,-0.96 0.72,-1.2 0.72,-1.2 0.96,-0.96 0.72,-1.2 0.72,-1.2 0.96,-1.2 0.72,-1.2 0.96,-1.2 0.72,-1.44 0.72,-1.2 0.96,-1.2 0.72,-1.2 0.72,-1.44 0.96,-1.2 0.72,-1.44 0.72,-1.2 0.96,-1.44 0.72,-1.2 0.72,-1.44 0.96,-1.2 0.72,-1.44 0.96,-1.2 0.72,-1.44 0.72,-1.2 0.96,-1.44 0.72,-1.44 0.72,-1.2 0.96,-1.44 0.72,-1.2 0.72,-1.44 0.96,-1.44 0.72,-1.2 0.96,-1.44 0.72,-1.2 0.72,-1.44 0.96,-1.44 0.72,-1.2 0.72,-1.44 0.96,-1.44 0.72,-1.2 0.72,-1.44 0.96,-1.2 0.72,-1.44 0.96,-1.2 0.72,-1.44 0.72,-1.44 0.96,-1.2 0.72,-1.44 0.72,-1.2 0.96,-1.44 0.72,-1.2 0.72,-1.44 0.96,-1.2 0.72,-1.44 0.72,-1.2 0.96,-1.44 0.72,-1.2 0.72,-1.2 0.96,-1.44 0.72,-1.2 0.96,-1.2 0.72,-1.44 0.72,-1.2 0.96,-1.2 0.72,-1.2 0.72,-1.44 0.96,-1.2 0.72,-1.2 0.72,-1.2 0.96,-0.96 0.72,-1.2 0.96,-1.2 0.72,-1.2 0.72,-0.96 0.96,-1.2 0.72,-0.96 0.72,-0.96 0.96,-0.96 0.72,-0.96 0.72,-0.96 0.96,-0.96 0.72,-0.72 0.96,-0.96 0.72,-0.72 0.72,-0.72 0.96,-0.72 0.72,-0.72 0.72,-0.72 0.96,-0.48 0.72,-0.72 0.72,-0.48 0.96,-0.48 0.72,-0.48 0.72,-0.24 0.96,-0.48 0.72,-0.24 0.72,-0.24 0.96,-0.24 0.72,-0.24 0.96,-0.24 0.72,-0.24 h 0.72 0.96 l 0.72,-0.24 h 0.72 0.96 0.72 0.72 l 0.96,0.24 h 0.72 0.96 l 0.72,0.24 0.72,0.24 h 0.96 l 0.72,0.24 0.72,0.24 h 0.96 l 0.72,0.24 0.72,0.24 0.96,0.24 0.72,0.24 0.96,0.24 0.72,0.24 0.72,0.24 0.96,0.24 0.72,0.24 0.72,0.24 0.96,0.48 0.72,0.24 0.72,0.24 0.96,0.24 0.72,0.24 0.72,0.48 0.96,0.24 0.72,0.24 0.96,0.24 0.72,0.48 0.72,0.24 0.96,0.24 0.72,0.48 0.72,0.24 0.96,0.24 0.72,0.48 0.72,0.24 0.96,0.24 0.72,0.48 0.72,0.24 0.96,0.24 0.72,0.48 0.96,0.24 0.72,0.24 0.72,0.48 0.96,0.24 0.72,0.24 0.72,0.48 0.96,0.24 0.72,0.24 0.72,0.48 0.96,0.24 0.72,0.24 0.96,0.48 0.72,0.24 0.72,0.24 0.96,0.48 0.72,0.24 0.72,0.48 0.96,0.24 0.72,0.24 0.72,0.48 0.96,0.24 0.72,0.48 0.72,0.24 0.96,0.24 0.72,0.48 0.96,0.24 0.72,0.24 0.72,0.48 0.96,0.24 0.72,0.24 0.72,0.48 0.96,0.24 0.72,0.48 0.72,0.24 0.96,0.24 0.72,0.48 0.72,0.24 0.96,0.24 0.72,0.48 0.96,0.24 0.72,0.48 0.72,0.24 0.96,0.24 0.72,0.48 0.72,0.24 0.96,0.24 0.72,0.48 0.72,0.24 0.96,0.48 0.72,0.24 0.72,0.24 0.96,0.48 0.72,0.24 0.96,0.24 0.72,0.48 0.72,0.24 0.96,0.48 0.72,0.24 0.72,0.24 0.96,0.48 0.72,0.24 0.72,0.24 0.96,0.48 0.72,0.24 0.96,0.48 0.72,0.24 0.72,0.24 0.96,0.48 0.72,0.24 0.72,0.48 0.96,0.24 0.72,0.24 0.72,0.48 0.96,0.24 0.72,0.24 0.72,0.48 0.96,0.24 0.72,0.48 0.96,0.24 0.72,0.24 0.72,0.48 0.96,0.24 0.72,0.24 0.72,0.48 0.96,0.24 0.72,0.48 0.72,0.24 0.96,0.24 0.72,0.48 0.72,0.24 0.96,0.24 0.72,0.48 0.96,0.24 0.72,0.48 0.72,0.24"
       style="fill:none;stroke:#feae2d;stroke-width:0.833333;stroke-linecap:butt;stroke-linejoin:round;stroke-miterlimit:10;stroke-dasharray:7.68, 5.76;stroke-dashoffset:0;stroke-opacity:1"
       id="path1000" /><path
       d="m 117.2,63.6 0.24,0.72 0.96,1.92 0.72,1.92 0.96,1.92 0.72,1.92 0.72,1.92 0.96,1.92 0.72,1.92 0.72,1.92 0.96,1.68 0.72,1.92 0.72,1.68 0.96,1.68 0.72,1.68 0.96,1.68 0.72,1.92 0.72,1.92 0.96,1.92 0.72,2.16 0.72,2.16 0.96,2.16 0.72,2.16 0.72,2.16 0.96,2.16 0.72,2.16 0.72,2.16 0.96,2.16 0.72,1.92 0.96,1.44 0.72,1.68 0.72,1.44 0.96,1.2 0.72,0.96 0.72,1.2 0.96,1.2 0.72,0.96 0.72,0.96 0.96,0.96 0.72,0.96 0.72,0.96 0.96,0.96 0.72,0.96 0.96,0.96 0.72,0.72 0.72,0.96 0.96,0.96 0.72,0.96 0.72,0.72 0.96,0.96 0.72,0.72 0.72,0.72 0.96,0.96 0.72,0.96 0.96,0.72 0.72,0.96 0.72,0.72 0.96,0.72 0.72,1.2 0.72,0.96 0.96,1.44 0.72,1.44 0.72,0.96 0.96,1.2 0.72,0.96 0.72,0.96 0.96,0.96 0.72,0.96 0.96,0.96 0.72,1.2 0.72,1.2 0.96,0.72 0.72,0.48 0.72,0.24 0.96,0.24 0.72,0.48 0.72,0.48 0.96,0.48 0.72,0.72 0.72,0.48 0.96,0.24 0.72,0.48 0.96,0.24 0.72,0.24 0.72,0.48 0.96,0.24 0.72,0.24 0.72,0.48 0.96,0.24 0.72,0.48 0.72,0.24 0.96,0.24 0.72,0.24 0.96,0.24 0.72,0.24 h 0.72 l 0.96,0.24 h 0.72 l 0.72,0.24 h 0.96 l 0.72,0.24 0.72,0.24 0.96,0.48 0.72,0.24 0.72,0.24 0.96,0.48 0.72,0.48 0.96,0.48 0.72,1.2 0.72,2.4 0.96,5.04 0.72,2.16 0.72,1.2 0.96,0.72 0.72,0.72 0.72,0.72 0.96,0.48 0.72,0.72 0.72,0.72 0.96,0.48 0.72,0.48 0.96,0.24 0.72,-0.96 0.72,-3.84 0.96,-0.48 0.72,0.48 0.72,0.72 0.96,1.2 0.72,1.2 0.72,1.68 0.96,2.16 0.72,2.16 0.96,1.92 0.72,2.4 0.72,2.88 0.96,2.4 0.72,3.12 0.72,4.8 0.96,4.08 0.72,3.12 0.72,3.12 0.96,2.88 0.72,2.64 0.72,2.16 0.96,2.88 0.72,3.36 0.96,3.36 0.72,3.36 0.72,2.88 0.96,1.68 h 0.72 l 0.72,0.48 0.96,1.2 0.72,0.48 0.72,0.48 0.96,0.24 0.72,-0.24 0.96,-0.48 0.72,-0.96 0.72,-1.44 0.96,-1.68 0.72,-0.96 0.72,-0.24 0.96,1.44 0.72,0.72 0.72,0.48 0.96,1.2 0.72,1.2 0.72,1.92 0.96,1.2 0.72,1.2 0.96,1.2 0.72,0.96 0.72,0.96 0.96,0.72 0.72,0.24 0.72,-0.96 0.96,-0.24 0.72,0.24 0.72,0.24 0.96,0.48 0.72,0.24 0.72,0.72 0.96,0.96 0.72,0.72 0.96,0.96 0.72,1.2 0.72,1.2 0.96,0.96 0.72,1.2 0.72,1.2 0.96,0.96 0.72,0.96 0.72,0.72 0.96,0.72 0.72,0.96 0.96,0.72 0.72,0.96 0.72,0.96 0.96,0.96 0.72,1.2 0.72,0.96 0.96,1.2 0.72,1.44 0.72,1.2 0.96,1.2 0.72,1.44 0.72,1.44 0.96,1.2 0.72,1.44 0.96,1.2 0.72,1.44 0.72,1.2 0.96,1.2 0.72,1.2 0.72,0.96 0.96,0.96 0.72,0.96 0.72,0.72 0.96,0.72 0.72,0.72 0.72,0.48 0.96,0.72 0.72,0.48 0.96,0.48 0.72,0.24 0.72,0.48 0.96,0.24 0.72,0.48 0.72,0.24 0.96,0.48 0.72,0.24 0.72,0.48 0.96,0.24 0.72,0.48 0.96,0.24 0.72,0.24 0.72,0.48 0.96,0.24 0.72,0.24 0.72,0.48 0.96,0.24 0.72,0.24 0.72,0.24 0.96,0.24 0.72,0.24 0.72,0.24 h 0.96 l 0.72,0.24 0.96,0.24 h 0.72 0.72 0.96 l 0.72,0.24 0.72,-0.24 h 0.96 0.72 0.72 l 0.96,-0.24 h 0.72"
       style="fill:none;stroke:#feae2d;stroke-width:0.833333;stroke-linecap:butt;stroke-linejoin:round;stroke-miterlimit:10;stroke-dasharray:7.68, 5.76;stroke-dashoffset:0;stroke-opacity:1"
       id="path1006" /><path
       d="m 325.52,307.68 0.72,-0.24 0.96,-0.24 0.72,-0.24 0.96,-0.24 0.72,-0.24 0.72,-0.24 0.96,-0.48 0.72,-0.24 0.72,-0.48 0.96,-0.24 0.72,-0.48 0.72,-0.24 0.96,-0.48 0.72,-0.48 0.96,-0.48 0.72,-0.48 0.72,-0.48 0.96,-0.48 0.72,-0.72 0.72,-0.72 0.96,-0.72 0.72,-0.72 0.72,-0.72 0.96,-0.72 0.72,-0.96 0.72,-0.72 0.96,-0.96 0.72,-0.96 0.96,-0.96 0.72,-0.96 0.72,-0.96 0.96,-0.96 0.72,-0.96 0.72,-0.96 0.96,-0.96 0.72,-0.96 0.72,-0.96 0.96,-1.2 0.72,-0.96 0.72,-1.2 0.96,-0.96 0.72,-1.2 0.96,-1.2 0.72,-1.2 0.72,-0.96 0.96,-1.2 0.72,-1.44 0.72,-1.2 0.96,-1.2 0.72,-1.2 0.72,-1.2 0.96,-1.44 0.72,-1.2 0.96,-1.44 0.72,-1.2 0.72,-1.44 0.96,-1.2 0.72,-1.2 0.72,-1.44 0.96,-1.2 0.72,-1.44 0.72,-1.44 0.96,-1.2 0.72,-1.44 0.72,-1.2 0.96,-1.44 0.72,-1.2 0.96,-1.44 0.72,-1.44 0.72,-1.2 0.96,-1.44 0.72,-1.44 0.72,-1.2 0.96,-1.44 0.72,-1.2 0.72,-1.44 0.96,-1.44 0.72,-1.2 0.72,-1.44 0.96,-1.2 0.72,-1.44 0.96,-1.44 0.72,-1.2 0.72,-1.44 0.96,-1.2 0.72,-1.44 0.72,-1.2 0.96,-1.44 0.72,-1.44 0.72,-1.2 0.96,-1.44 0.72,-1.2 0.96,-1.2 0.72,-1.44 0.72,-1.2 0.96,-1.44 0.72,-1.2 0.72,-1.44 0.96,-1.2 0.72,-1.2 0.72,-1.44 0.96,-1.2 0.72,-1.2 0.72,-1.2 0.96,-1.2 0.72,-1.44 0.96,-1.2 0.72,-1.2 0.72,-1.2 0.96,-0.96 0.72,-1.2 0.72,-1.2 0.96,-0.96 0.72,-1.2 0.72,-0.96 0.96,-1.2 0.72,-0.96 0.96,-0.96 0.72,-0.96 0.72,-0.96 0.96,-0.72 0.72,-0.96 0.72,-0.72 0.96,-0.96 0.72,-0.72 0.72,-0.48 0.96,-0.72 0.72,-0.72 0.72,-0.48 0.96,-0.72 0.72,-0.48 0.96,-0.48 0.72,-0.24 0.72,-0.48 0.96,-0.24 0.72,-0.48 0.72,-0.24 0.96,-0.24 0.72,-0.24 h 0.72 l 0.96,-0.24 H 440 l 0.72,-0.24 h 0.96 0.72 0.96 0.72 0.72 l 0.96,0.24 h 0.72 l 0.72,0.24 h 0.96 l 0.72,0.24 h 0.72 l 0.96,0.24 0.72,0.24 0.96,0.24 0.72,0.24 h 0.72 l 0.96,0.24 0.72,0.24 0.72,0.24 0.96,0.24 0.72,0.48 0.72,0.24 0.96,0.24 0.72,0.24 0.72,0.24 0.96,0.24 0.72,0.24 0.72,0.48 0.96,0.24 0.72,0.24 0.96,0.24 0.72,0.48 0.72,0.24 0.96,0.24 0.72,0.24 0.72,0.48 0.96,0.24 0.72,0.24 0.72,0.48 0.96,0.24 0.72,0.24 0.96,0.48 0.72,0.24 0.72,0.24 0.96,0.48 0.72,0.24 0.72,0.24 0.96,0.48 0.72,0.24 0.72,0.24 0.96,0.48 0.72,0.24 0.96,0.48 0.72,0.24 0.72,0.24 0.96,0.48 0.72,0.24 0.72,0.24 0.96,0.48 0.72,0.24 0.72,0.24 0.96,0.48 0.72,0.24 0.72,0.48 0.96,0.24 0.72,0.24 0.96,0.48 0.72,0.24 0.72,0.24 0.96,0.48 0.72,0.24 0.72,0.24 0.96,0.48 0.72,0.24 0.72,0.48 0.96,0.24 0.72,0.24 0.72,0.48 0.96,0.24 0.72,0.24 0.96,0.48 0.72,0.24 0.72,0.48 0.96,0.24 0.72,0.24 0.72,0.48 0.96,0.24 0.72,0.48 0.72,0.24 0.96,0.24 0.72,0.48 0.96,0.24 0.72,0.24 0.72,0.48 0.96,0.24 0.72,0.48 0.72,0.24 0.96,0.24 0.72,0.48 0.72,0.24 0.96,0.24 0.72,0.48 0.72,0.24 0.96,0.48 0.72,0.24 0.96,0.24 0.72,0.48 0.72,0.24 0.96,0.24 0.72,0.48 0.72,0.24 0.96,0.48 0.72,0.24 0.72,0.24 0.96,0.48 0.72,0.24 0.72,0.24 0.96,0.48 0.72,0.24 0.96,0.48 0.72,0.24 0.72,0.24 0.96,0.48 0.72,0.24 0.72,0.24 0.96,0.48 0.72,0.24 0.72,0.48 0.96,0.24 0.72,0.24 0.96,0.48 0.72,0.24 0.72,0.24 0.96,0.48 0.72,0.24 0.72,0.48 0.96,0.24 0.48,0.24"
       style="fill:none;stroke:#feae2d;stroke-width:0.833333;stroke-linecap:butt;stroke-linejoin:round;stroke-miterlimit:10;stroke-dasharray:7.68, 5.76;stroke-dashoffset:0;stroke-opacity:1"
       id="path1008" /><path
       d="m 119.36,63.6 0.72,1.68 0.72,2.16 0.72,1.92 0.96,1.92 0.72,1.92 0.72,1.92 0.96,1.92 0.72,1.92 0.72,1.68 0.96,1.92 0.72,1.68 0.96,1.68 0.72,1.68 0.72,1.68 0.96,1.68 0.72,2.16 0.72,1.68 0.96,1.92 0.72,2.4 0.72,2.16 0.96,2.16 0.72,2.16 0.72,2.16 0.96,2.16 0.72,2.16 0.72,2.16 0.96,1.92 0.72,1.92 0.96,1.44 0.72,1.68 0.72,1.68 0.96,1.2 0.72,0.96 0.72,1.2 0.96,0.96 0.72,1.2 0.72,0.96 0.96,0.96 0.72,0.96 0.96,0.72 0.72,1.2 0.72,0.96 0.96,0.72 0.72,0.96 0.72,0.96 0.96,0.96 0.72,0.72 0.72,0.96 0.96,0.72 0.72,0.96 0.96,0.72 0.72,0.96 0.72,0.72 0.96,0.96 0.72,0.96 0.72,0.72 0.96,0.72 0.72,0.96 0.72,1.2 0.96,1.44 0.72,1.44 0.72,1.2 0.96,0.96 0.72,0.96 0.96,0.96 0.72,0.96 0.72,1.2 0.96,0.96 0.72,1.2 0.72,1.2 0.96,0.72 0.72,0.48 0.72,0.24 0.96,0.24 0.72,0.48 0.72,0.48 0.96,0.72 0.72,0.48 0.96,0.48 0.72,0.24 0.72,0.48 0.96,0.24 0.72,0.24 0.72,0.48 0.96,0.24 0.72,0.48 0.72,0.24 0.96,0.24 0.72,0.48 0.96,0.24 0.72,0.24 0.72,0.48 0.96,0.24 h 0.72 l 0.72,0.24 0.96,0.24 h 0.72 l 0.72,0.24 h 0.96 l 0.72,0.48 0.72,0.24 0.96,0.24 0.72,0.24 0.96,0.48 0.72,0.48 0.72,0.24 0.96,0.72 0.72,1.2 0.72,2.4 0.96,5.28 0.72,2.16 0.72,1.2 0.96,0.72 0.72,0.72 0.72,0.72 0.96,0.48 0.72,0.72 0.96,0.72 0.72,0.48 0.72,0.48 0.96,0.24 0.72,-0.96 0.72,-3.84 0.96,-0.48 0.72,0.48 0.72,0.96 0.96,0.96 0.72,1.44 0.96,1.68 0.72,2.16 0.72,1.92 0.96,2.16 0.72,2.4 0.72,2.64 0.96,2.64 0.72,3.12 0.72,4.56 0.96,4.32 0.72,3.12 0.72,2.88 0.96,2.88 0.72,2.64 0.96,2.4 0.72,2.88 0.72,3.36 0.96,3.36 0.72,3.36 0.72,2.88 0.96,1.68 h 0.72 l 0.72,0.48 0.96,1.2 0.72,0.48 0.72,0.48 h 0.96 0.72 l 0.96,-0.48 0.72,-0.96 0.72,-1.68 0.96,-1.44 0.72,-1.2 h 0.72 l 0.96,1.44 0.72,0.72 0.72,0.48 0.96,1.2 0.72,1.2 0.96,1.68 0.72,1.44 0.72,1.2 0.96,1.2 0.72,0.96 0.72,0.96 0.96,0.48 0.72,0.48 0.72,-0.96 0.96,-0.24 0.72,0.24 0.72,0.24 0.96,0.48 0.72,0.24 0.96,0.72 0.72,0.96 0.72,0.72 0.96,0.96 0.72,1.2 0.72,1.2 0.96,0.96 0.72,1.2 0.72,1.2 0.96,0.96 0.72,0.96 0.96,0.72 0.72,0.72 0.72,0.72 0.96,0.96 0.72,0.96 0.72,0.96 0.96,0.96 0.72,1.2 0.72,0.96 0.96,1.2 0.72,1.2 0.72,1.44 0.96,1.2 0.72,1.44 0.72,1.2 0.96,1.44 0.72,1.44 0.96,1.2 0.72,1.44 0.72,1.2 0.96,1.2 0.72,1.2 0.72,0.96 0.96,0.96 0.72,0.96 0.72,0.72 0.96,0.72 0.72,0.72 0.96,0.48 0.72,0.72 0.72,0.48 0.96,0.24 0.72,0.48 0.72,0.48 0.96,0.24 0.72,0.48 0.72,0.24"
       style="fill:none;stroke:#ff9933;stroke-width:0.833333;stroke-linecap:butt;stroke-linejoin:round;stroke-miterlimit:10;stroke-dasharray:7.68, 5.76;stroke-dashoffset:0;stroke-opacity:1"
       id="path1014" /><path
       d="m 303.68,304.56 0.96,0.48 0.72,0.24 0.96,0.48 0.72,0.24 0.72,0.24 0.96,0.48 0.72,0.24 0.72,0.48 0.96,0.24 0.72,0.24 0.72,0.48 0.96,0.24 0.72,0.24 0.72,0.24 0.96,0.24 0.72,0.24 0.72,0.24 h 0.96 l 0.72,0.24 H 320 l 0.72,0.24 h 0.72 0.96 0.72 0.72 0.96 0.72 0.72 l 0.96,-0.24 0.72,-0.24 h 0.96 l 0.72,-0.24 0.72,-0.24 0.96,-0.24 0.72,-0.24 0.72,-0.24 0.96,-0.48 0.72,-0.24 0.72,-0.48 0.96,-0.24 0.72,-0.48 0.96,-0.24 0.72,-0.48 0.72,-0.48 0.96,-0.48 0.72,-0.48 0.72,-0.48 0.96,-0.72 0.72,-0.48 0.72,-0.72 0.96,-0.72 0.72,-0.72 0.72,-0.72 0.96,-0.72 0.72,-0.96 0.96,-0.72 0.72,-0.96 0.72,-0.96 0.96,-0.96 0.72,-0.96 0.72,-0.96 0.96,-0.96 0.72,-0.96 0.72,-0.96 0.96,-0.96 0.72,-0.96 0.72,-1.2 0.96,-0.96 0.72,-0.96 0.96,-1.2 0.72,-0.96 0.72,-1.2 0.96,-1.2 0.72,-1.2 0.72,-1.2 0.96,-1.2 0.72,-1.2 0.72,-1.2 0.96,-1.2 0.72,-1.2 0.96,-1.44 0.72,-1.2 0.72,-1.2 0.96,-1.44 0.72,-1.2 0.72,-1.44 0.96,-1.2 0.72,-1.44 0.72,-1.2 0.96,-1.44 0.72,-1.2 0.72,-1.44 0.96,-1.2 0.72,-1.44 0.96,-1.2 0.72,-1.44 0.72,-1.44 0.96,-1.2 0.72,-1.44 0.72,-1.2 0.96,-1.44 0.72,-1.44 0.72,-1.2 0.96,-1.44 0.72,-1.44 0.72,-1.2 0.96,-1.44 0.72,-1.2 0.96,-1.44 0.72,-1.44 0.72,-1.2 0.96,-1.44 0.72,-1.2 0.72,-1.44 0.96,-1.2 0.72,-1.44 0.72,-1.44 0.96,-1.2 0.72,-1.44 0.96,-1.2 0.72,-1.44 0.72,-1.2 0.96,-1.44 0.72,-1.2 0.72,-1.2 0.96,-1.44 0.72,-1.2 0.72,-1.44 0.96,-1.2 0.72,-1.2 0.72,-1.44 0.96,-1.2 0.72,-1.2 0.96,-1.2 0.72,-1.2 0.72,-1.2 0.96,-1.2 0.72,-1.2 0.72,-1.2 0.96,-1.2 0.72,-1.2 0.72,-1.2 0.96,-0.96 0.72,-1.2 0.72,-0.96 0.96,-0.96 0.72,-0.96 0.96,-0.96 0.72,-0.96 0.72,-0.96 0.96,-0.96 0.72,-0.72 0.72,-0.96 0.96,-0.72 0.72,-0.72 0.72,-0.72 0.96,-0.48 0.72,-0.72 0.96,-0.48 0.72,-0.48 0.72,-0.48 0.96,-0.48 0.72,-0.48 0.72,-0.48 0.96,-0.24 0.72,-0.24 0.72,-0.24 0.96,-0.24 0.72,-0.24 0.72,-0.24 h 0.96 0.72 l 0.96,-0.24 h 0.72 0.72 0.96 0.72 l 0.72,0.24 h 0.96 0.72 l 0.72,0.24 h 0.96 l 0.72,0.24 0.96,0.24 h 0.72 l 0.72,0.24 0.96,0.24 0.72,0.24 0.72,0.24 0.96,0.24 0.72,0.24 0.72,0.24 0.96,0.24 0.72,0.24 0.72,0.24 0.96,0.24 0.72,0.24 0.72,0.24 0.96,0.48 0.72,0.24 0.96,0.24 0.72,0.24 0.72,0.48 0.96,0.24 0.72,0.24 0.72,0.24 0.96,0.48 0.72,0.24 0.72,0.24 0.96,0.48 0.72,0.24 0.96,0.24 0.72,0.24 0.72,0.48 0.96,0.24 0.72,0.24 0.72,0.48 0.96,0.24 0.72,0.48 0.72,0.24 0.96,0.24 0.72,0.48 0.96,0.24 0.72,0.24 0.72,0.48 0.96,0.24 0.72,0.24 0.72,0.48 0.96,0.24 0.72,0.24 0.72,0.48 0.96,0.24 0.72,0.48 0.72,0.24 0.96,0.24 0.72,0.48 0.72,0.24 0.96,0.24 0.72,0.48 0.96,0.24 0.72,0.24 0.72,0.48 0.96,0.24 0.72,0.48 0.72,0.24 0.96,0.24 0.72,0.48 0.72,0.24 0.96,0.24 0.72,0.48 0.96,0.24 0.72,0.48 0.72,0.24 0.96,0.24 0.72,0.48 0.72,0.24 0.96,0.48 0.72,0.24 0.72,0.24 0.96,0.48 0.72,0.24 0.96,0.24 0.72,0.48 0.72,0.24 0.96,0.24 0.72,0.48 0.72,0.24 0.96,0.48 0.72,0.24 0.72,0.24 0.96,0.48 0.72,0.24 0.72,0.24 0.96,0.48 0.72,0.24 0.96,0.48 0.72,0.24 0.72,0.24 0.96,0.48 0.72,0.24 0.72,0.24 0.96,0.48 0.72,0.24 0.72,0.48 0.96,0.24 0.72,0.24 0.72,0.48 0.96,0.24 0.72,0.24 0.96,0.48 0.72,0.24 0.72,0.48 0.96,0.24 0.72,0.24 0.72,0.48 0.96,0.24 0.72,0.24 0.72,0.48 0.96,0.24 0.72,0.48"
       style="fill:none;stroke:#ff9933;stroke-width:0.833333;stroke-linecap:butt;stroke-linejoin:round;stroke-miterlimit:10;stroke-dasharray:7.68, 5.76;stroke-dashoffset:0;stroke-opacity:1"
       id="path1016" /><path
       d="m 120.8,63.6 0.72,1.44 0.72,1.92 0.72,2.16 0.96,1.92 0.72,1.92 0.72,1.92 0.96,1.92 0.72,1.92 0.96,1.92 0.72,1.68 0.72,1.92 0.96,1.68 0.72,1.68 0.72,1.92 0.96,1.44 0.72,1.68 0.72,2.16 0.96,1.68 0.72,1.92 0.72,2.4 0.96,2.16 0.72,2.16 0.72,2.16 0.96,2.16 0.72,2.16 0.96,2.16 0.72,2.16 0.72,1.92 0.96,2.16 0.72,1.2 0.72,1.92 0.96,1.44 0.72,1.2 0.72,0.96 0.96,1.2 0.72,1.2 0.96,0.96 0.72,0.96 0.72,0.96 0.96,0.96 0.72,0.96 0.72,0.96 0.96,0.96 0.72,0.96 0.72,0.72 0.96,0.96 0.72,0.96 0.96,0.96 0.72,0.72 0.72,0.96 0.96,0.72 0.72,0.72 0.72,0.96 0.96,0.96 0.72,0.72 0.72,0.96 0.96,0.72 0.72,0.72 0.72,1.2 0.96,1.2 0.72,1.44 0.72,1.44 0.96,0.96 0.72,1.2 0.96,0.96 0.72,0.96 0.72,0.96 0.96,1.2 0.72,1.2 0.72,1.2 0.96,0.96 0.72,0.96 0.72,0.48 h 0.96 l 0.72,0.48 0.96,0.48 0.72,0.48 0.72,0.48 0.96,0.48 0.72,0.48 0.72,0.48 0.96,0.24 0.72,0.24 0.72,0.48 0.96,0.24 0.72,0.24 0.96,0.48 0.72,0.24 0.72,0.48 0.96,0.24 0.72,0.48 0.72,0.24 0.96,0.24 0.72,0.24 0.72,0.24 0.96,0.24 0.72,0.24 h 0.72 l 0.96,0.24 0.72,0.24 0.96,0.24 0.72,0.24 0.72,0.48 0.96,0.24 0.72,0.48 0.72,0.24 0.96,0.48 0.72,0.96 0.72,0.96 0.96,2.4 0.72,5.28 0.72,2.16 0.96,1.2 0.72,0.96 0.96,0.72 0.72,0.72 0.72,0.48 0.96,0.72 0.72,0.72 0.72,0.72 0.96,0.48 h 0.72 l 0.72,-0.96 0.96,-3.84 0.72,-0.48 0.72,0.48 0.96,0.96 0.72,1.2 0.96,1.2 0.72,1.68 0.72,2.16 0.96,2.16 0.72,1.92 0.72,2.64 0.96,2.64 0.72,2.64 0.72,3.12 0.96,4.56 0.72,4.32 0.96,3.12 0.72,2.88 0.72,2.88 0.96,2.64 0.72,2.4 0.72,2.88 0.96,3.36 0.72,3.36 0.72,3.36 0.96,2.88 0.72,1.68 h 0.72 l 0.96,0.24 0.72,1.44 0.96,0.48 0.72,0.24 0.72,0.24 h 0.96 l 0.72,-0.48 0.72,-0.96 0.96,-1.68 0.72,-1.44 0.72,-1.2 h 0.96 l 0.72,1.44 0.72,0.72 0.96,0.48 0.72,0.96 0.96,1.44 0.72,1.68 0.72,1.44 0.96,1.2 0.72,1.2 0.72,0.96 0.96,0.96 0.72,0.48 0.72,0.48 0.96,-0.96 0.72,-0.24 0.96,0.24 0.72,0.24 0.72,0.48 0.96,0.24 0.72,0.72 0.72,0.96 0.96,0.72 0.72,0.96 0.72,1.2 0.96,0.96 0.72,1.2 0.72,1.2 0.96,0.96 0.72,1.2 0.96,0.96 0.72,0.72 0.72,0.72 0.96,0.72 0.72,0.96 0.72,0.96 0.96,0.96 0.72,0.96 0.72,1.2 0.96,0.96 0.72,1.2 0.72,1.2 0.96,1.44 0.72,1.2 0.96,1.44"
       style="fill:none;stroke:#ff6644;stroke-width:0.833333;stroke-linecap:butt;stroke-linejoin:round;stroke-miterlimit:10;stroke-dasharray:7.68, 5.76;stroke-dashoffset:0;stroke-opacity:1"
       id="path1022" /><path
       d="m 287.6,288.24 0.72,1.2 0.72,1.44 0.96,1.44 0.72,1.2 0.72,1.44 0.96,1.2 0.72,1.2 0.72,0.96 0.96,1.2 0.72,0.96 0.96,0.96 0.72,0.72 0.72,0.72 0.96,0.72 0.72,0.48 0.72,0.48 0.96,0.72 0.72,0.24 0.72,0.48 0.96,0.48 0.72,0.24 0.96,0.48 0.72,0.24 0.72,0.48 0.96,0.24 0.72,0.48 0.72,0.24 0.96,0.24 0.72,0.48 0.72,0.24 0.96,0.48 0.72,0.24 0.72,0.24 0.96,0.24 0.72,0.48 0.72,0.24 0.96,0.24 0.72,0.24 0.96,0.24 0.72,0.24 h 0.72 l 0.96,0.24 h 0.72 l 0.72,0.24 h 0.96 0.72 0.72 0.96 0.72 0.96 l 0.72,-0.24 h 0.72 l 0.96,-0.24 h 0.72 l 0.72,-0.24 0.96,-0.24 0.72,-0.24 0.72,-0.24 0.96,-0.48 0.72,-0.24 0.96,-0.24 0.72,-0.48 0.72,-0.24 0.96,-0.48 0.72,-0.48 0.72,-0.24 0.96,-0.48 0.72,-0.48 0.72,-0.48 0.96,-0.48 0.72,-0.72 0.72,-0.48 0.96,-0.72 0.72,-0.72 0.72,-0.72 0.96,-0.72 0.72,-0.72 0.96,-0.96 0.72,-0.96 0.72,-0.72 0.96,-0.96 0.72,-0.96 0.72,-0.96 0.96,-0.96 0.72,-0.96 0.72,-0.96 0.96,-0.96 0.72,-0.96 0.96,-0.96 0.72,-1.2 0.72,-0.96 0.96,-0.96 0.72,-1.2 0.72,-0.96 0.96,-1.2 0.72,-1.2 0.72,-1.2 0.96,-1.2 0.72,-1.2 0.96,-1.2 0.72,-1.2 0.72,-1.2 0.96,-1.2 0.72,-1.44 0.72,-1.2 0.96,-1.2 0.72,-1.44 0.72,-1.2 0.96,-1.44 0.72,-1.2 0.72,-1.44 0.96,-1.2 0.72,-1.44 0.96,-1.2 0.72,-1.44 0.72,-1.2 0.96,-1.44 0.72,-1.44 0.72,-1.2 0.96,-1.44 0.72,-1.2 0.72,-1.44 0.96,-1.44 0.72,-1.2 0.72,-1.44 0.96,-1.2 0.72,-1.44 0.96,-1.44 0.72,-1.2 0.72,-1.44 0.96,-1.2 0.72,-1.44 0.72,-1.44 0.96,-1.2 0.72,-1.44 0.72,-1.2 0.96,-1.44 0.72,-1.44 0.72,-1.2 0.96,-1.44 0.72,-1.2 0.96,-1.44 0.72,-1.2 0.72,-1.44 0.96,-1.2 0.72,-1.44 0.72,-1.2 0.96,-1.2 0.72,-1.44 0.72,-1.2 0.96,-1.44 0.72,-1.2 0.96,-1.2 0.72,-1.44 0.72,-1.2 0.96,-1.2 0.72,-1.2 0.72,-1.2 0.96,-1.2 0.72,-1.2 0.72,-1.2 0.96,-1.2 0.72,-1.2 0.72,-1.2 0.96,-0.96 0.72,-1.2 0.96,-0.96 0.72,-1.2 0.72,-0.96 0.96,-0.96 0.72,-0.96 0.72,-0.96 0.96,-0.72 0.72,-0.96 0.72,-0.72 0.96,-0.96 0.72,-0.72 0.72,-0.72 0.96,-0.72 0.72,-0.48 0.96,-0.72 0.72,-0.48 0.72,-0.48 0.96,-0.48 0.72,-0.48 0.72,-0.48 0.96,-0.24 0.72,-0.24 0.72,-0.48 0.96,-0.24 0.72,-0.24 h 0.96 l 0.72,-0.24 h 0.72 l 0.96,-0.24 h 0.72 0.72 0.96 0.72 0.72 l 0.96,0.24 h 0.72 0.72 l 0.96,0.24 h 0.72 l 0.96,0.24 0.72,0.24 0.72,0.24 h 0.96 l 0.72,0.24 0.72,0.24 0.96,0.24 0.72,0.24 0.72,0.24 0.96,0.24 0.72,0.24 0.72,0.24 0.96,0.24 0.72,0.24 0.96,0.48 0.72,0.24 0.72,0.24 0.96,0.24 0.72,0.24 0.72,0.48 0.96,0.24 0.72,0.24 0.72,0.24 0.96,0.48 0.72,0.24 0.96,0.24 0.72,0.48 0.72,0.24 0.96,0.24 0.72,0.48 0.72,0.24 0.96,0.24 0.72,0.24 0.72,0.48 0.96,0.24 0.72,0.24 0.96,0.48 0.72,0.24 0.72,0.48 0.96,0.24 0.72,0.24 0.72,0.48 0.96,0.24 0.72,0.24 0.72,0.48 0.96,0.24 0.72,0.24 0.72,0.48 0.96,0.24 0.72,0.48 0.72,0.24 0.96,0.24 0.72,0.48 0.96,0.24 0.72,0.24 0.72,0.48 0.96,0.24 0.72,0.24 0.72,0.48 0.96,0.24 0.72,0.48 0.72,0.24 0.96,0.24 0.72,0.48 0.96,0.24 0.72,0.24 0.72,0.48 0.96,0.24 0.72,0.48 0.72,0.24 0.96,0.24 0.72,0.48 0.72,0.24 0.96,0.24 0.72,0.48 0.96,0.24 0.72,0.48 0.72,0.24 0.96,0.24 0.72,0.48 0.72,0.24 0.96,0.48 0.72,0.24 0.72,0.24 0.96,0.48 0.72,0.24 0.72,0.24 0.96,0.48 0.72,0.24 0.72,0.24 0.96,0.48 0.72,0.24 0.96,0.48 0.72,0.24 0.72,0.24"
       style="fill:none;stroke:#ff6644;stroke-width:0.833333;stroke-linecap:butt;stroke-linejoin:round;stroke-miterlimit:10;stroke-dasharray:7.68, 5.76;stroke-dashoffset:0;stroke-opacity:1"
       id="path1024" /><path
       d="m 529.28,205.68 0.96,0.48 0.72,0.24 0.72,0.24 0.96,0.48 0.72,0.24 0.72,0.48 0.96,0.24 0.72,0.24 0.96,0.48 0.72,0.24 0.72,0.24 0.96,0.48 0.72,0.24 0.72,0.48 0.96,0.24 0.72,0.24 0.72,0.48 0.96,0.24 0.72,0.24 0.72,0.48 0.96,0.24 0.72,0.48 0.96,0.24 0.72,0.24 0.72,0.48 0.96,0.24 0.72,0.24 0.72,0.48"
       style="fill:none;stroke:#ff6644;stroke-width:0.833333;stroke-linecap:butt;stroke-linejoin:round;stroke-miterlimit:10;stroke-dasharray:7.68, 5.76;stroke-dashoffset:0;stroke-opacity:1"
       id="path1026" /></g></svg>
